<?xml version="1.0" encoding="UTF-8"?>
<svg version="1.1" xmlns="http://www.w3.org/2000/svg" width="512" height="512">
<path d="M0 0 C1.45496879 -0.00258678 2.90993687 -0.00560081 4.36490399 -0.0090034 C8.35016948 -0.01704014 12.33541692 -0.01886111 16.32068956 -0.01960087 C20.62425934 -0.02145727 24.92781988 -0.02900762 29.23138428 -0.03573608 C38.63670943 -0.04929697 48.04203031 -0.05534082 57.44736362 -0.05974674 C63.32579116 -0.06251335 69.20421707 -0.0667515 75.08264351 -0.07125092 C91.37409455 -0.08344139 107.66554428 -0.09374066 123.95699978 -0.09712601 C124.99897664 -0.09734557 126.0409535 -0.09756514 127.11450541 -0.09779136 C128.15890939 -0.09800964 129.20331337 -0.09822791 130.27936596 -0.09845281 C132.39555895 -0.09889626 134.51175195 -0.09934283 136.62794495 -0.09979248 C137.67763929 -0.10001391 138.72733363 -0.10023534 139.80883688 -0.10046348 C156.8038281 -0.10440844 173.79877636 -0.12185425 190.79375099 -0.145152 C208.26294976 -0.16890551 225.732127 -0.1813297 243.20134217 -0.18249393 C253.00122008 -0.18340852 262.80104203 -0.18910615 272.60090446 -0.20731354 C280.94856962 -0.22276869 289.29616152 -0.22780325 297.64383828 -0.21957543 C301.8970898 -0.21568782 306.15019404 -0.21650524 310.40342712 -0.23063278 C341.84049158 -0.32883871 369.50775174 2.0267864 393.41236877 24.71856689 C407.71520611 39.77418514 417.82044736 60.44695969 417.84457779 81.47469997 C417.84841893 82.73490158 417.85226008 83.9951032 417.85621762 85.29349273 C417.85543747 86.6843246 417.85455871 88.07515641 417.85359192 89.46598816 C417.85617708 90.94952982 417.85919066 92.43307078 417.86259532 93.91661078 C417.8706512 97.99006713 417.87245411 102.06350584 417.87319279 106.13696921 C417.87504586 110.53187953 417.88259459 114.92678075 417.889328 119.32168579 C417.90290291 128.93153405 417.90893504 138.54137814 417.91333866 148.15123439 C417.91610311 154.15526782 417.9203409 160.15929964 417.92484283 166.16333199 C417.93703555 182.7961247 417.94733411 199.42891613 417.95071793 216.06171322 C417.95093749 217.12603672 417.95115706 218.19036023 417.95138328 219.28693596 C417.95160156 220.35377169 417.95181983 221.42060743 417.95204473 222.51977152 C417.95248819 224.68149563 417.95293475 226.84321974 417.9533844 229.00494385 C417.95360583 230.07722811 417.95382726 231.14951238 417.9540554 232.25429011 C417.95800058 249.61611793 417.97544604 266.97790371 417.99874392 284.33971529 C418.02248627 302.17722509 418.03492113 320.01471382 418.03608584 337.85223967 C418.03700111 347.86223456 418.04271567 357.8721747 418.06090546 367.88215446 C418.07634555 376.4088881 418.08140399 384.93555008 418.07316735 393.46229505 C418.06927435 397.80844592 418.07012398 402.15445264 418.0842247 406.50058556 C418.09704536 410.48887621 418.09569532 414.47691562 418.08363399 418.46520633 C418.08169099 419.89866501 418.08468983 421.33214199 418.09347835 422.76557504 C418.16549016 435.31806064 416.90898526 447.90750931 411.46315002 459.39044189 C411.0053717 460.38672607 411.0053717 460.38672607 410.53834534 461.40313721 C401.76419225 480.0425765 388.08719979 494.30859843 369.58815002 503.45294189 C368.97503967 503.76650635 368.36192932 504.0800708 367.73023987 504.40313721 C349.69725628 512.79370185 329.79354001 511.71797418 310.40837824 511.64868152 C306.03411551 511.63746798 301.65990392 511.64954815 297.28564453 511.65852356 C288.74049513 511.67238701 280.19549447 511.66495164 271.65035228 511.64984798 C261.68266046 511.63290666 251.71500486 511.63620824 241.74730309 511.63994206 C223.95504574 511.64580777 206.16285937 511.63169858 188.37062073 511.60699463 C171.13524212 511.58306683 153.89995828 511.57599627 136.66456604 511.58648682 C117.8577877 511.59791344 99.05105309 511.59980539 80.24427527 511.58538872 C78.23649609 511.58386301 76.22871691 511.58234265 74.22093773 511.58082771 C73.23327849 511.5800699 72.24561926 511.57931208 71.22803095 511.57853131 C64.29183345 511.5738028 57.35565558 511.57562963 50.41945839 511.57989311 C41.96070513 511.58483552 33.50204118 511.57876517 25.0433083 511.55899882 C20.73354001 511.54917348 16.4239073 511.54396991 12.11413193 511.55189133 C8.15960888 511.55901077 4.20535792 511.55199935 0.25087043 511.5342877 C-1.17010899 511.53028346 -2.59111373 511.53117424 -4.01208331 511.53780656 C-28.25833193 511.64118084 -49.45089741 504.05408535 -67.11888123 487.30841064 C-76.23765094 478.18964093 -83.05836639 468.07994258 -87.66184998 456.01544189 C-87.9004071 455.39540283 -88.13896423 454.77536377 -88.38475037 454.13653564 C-92.14825268 443.6689123 -92.58066875 433.17895721 -92.55427551 422.15115356 C-92.55801853 420.65647088 -92.56262263 419.16179015 -92.56800616 417.66711247 C-92.58017125 413.58599171 -92.5799834 409.50495332 -92.57761741 405.42381859 C-92.57720758 401.01190826 -92.58826414 396.60002376 -92.59773254 392.18812561 C-92.61430812 383.55382902 -92.61984054 374.91955974 -92.6209573 366.28524856 C-92.62190946 359.26238798 -92.62602813 352.23953636 -92.63235855 345.21667862 C-92.64996198 325.28025716 -92.65919889 305.34385718 -92.6576976 285.40742789 C-92.65761769 284.33383423 -92.65753778 283.26024057 -92.65745544 282.15411377 C-92.6573328 280.54174372 -92.6573328 280.54174372 -92.65720768 278.89680053 C-92.65639516 261.48489173 -92.67552678 244.0730695 -92.70373218 226.66118573 C-92.73250329 208.75796277 -92.74627013 190.85478199 -92.74454463 172.95153534 C-92.74388216 162.910238 -92.7493114 152.86903142 -92.77090073 142.82775497 C-92.78916829 134.27702503 -92.7934143 125.726427 -92.77988188 117.17568593 C-92.77338012 112.81908782 -92.77313314 108.46274236 -92.79058838 104.10616875 C-92.80644901 100.10618387 -92.80332507 96.10664921 -92.78602012 92.10667445 C-92.78297849 90.67131116 -92.78647347 89.23591315 -92.79774027 87.80059086 C-92.90499863 73.14829341 -90.24596041 59.1399038 -83.28684998 46.14044189 C-82.80731873 45.19040283 -82.32778748 44.24036377 -81.83372498 43.26153564 C-71.65684176 24.31573606 -53.68995157 10.20881013 -33.20872498 3.78497314 C-22.05888257 0.59540942 -11.52752476 -0.0082195 0 0 Z " fill="#FEFEFE" transform="translate(93.28684997558594,0.85955810546875)"/>
<path d="M0 0 C2.52499502 0.00321624 5.04887434 -0.02062444 7.57373047 -0.0456543 C9.20523944 -0.04792309 10.83675149 -0.04863275 12.46826172 -0.04760742 C13.21000641 -0.05681717 13.9517511 -0.06602692 14.7159729 -0.07551575 C15.421362 -0.06928696 16.1267511 -0.06305817 16.85351562 -0.05664062 C17.46176178 -0.05727005 18.07000793 -0.05789948 18.69668579 -0.05854797 C20.86669922 0.31567383 20.86669922 0.31567383 27.86669922 3.31567383 C28.36169922 13.71067383 28.36169922 13.71067383 28.86669922 24.31567383 C30.12482422 22.97504883 31.38294922 21.63442383 32.67919922 20.25317383 C45.81854254 7.21616184 63.23437215 1.05921555 81.55810547 1.09106445 C82.69119141 1.10331055 83.82427734 1.11555664 84.99169922 1.12817383 C86.13251953 1.12881836 87.27333984 1.12946289 88.44873047 1.13012695 C91.59114509 1.14655072 94.72597456 1.21520932 97.86669922 1.31567383 C98.59985352 1.3238916 99.33300781 1.33210938 100.08837891 1.34057617 C103.56691821 1.55277263 104.81395182 2.26241597 107.28857422 4.76098633 C109.3528223 9.41065403 109.3131261 13.17423352 109.11669922 18.19067383 C109.09865234 19.06981445 109.08060547 19.94895508 109.06201172 20.85473633 C109.01518301 23.00885703 108.94344916 25.16241156 108.86669922 27.31567383 C109.56794922 27.30407227 110.26919922 27.2924707 110.99169922 27.28051758 C116.70688416 27.2261612 122.24964801 27.19226359 127.86669922 28.31567383 C130.97461509 32.97754763 130.20563899 37.76614428 130.17919922 43.25317383 C130.17500977 44.42235352 130.17082031 45.5915332 130.16650391 46.79614258 C130.03315718 57.19151321 128.88155421 67.13168948 126.86669922 77.31567383 C126.71152832 78.12568848 126.55635742 78.93570313 126.39648438 79.77026367 C124.71954541 88.39427701 122.94067127 96.45872772 118.86669922 104.31567383 C113.05836753 103.93047906 107.37506492 103.48873854 101.67919922 102.25317383 C89.68799224 99.97658236 77.32608973 99.67608015 66.88623047 106.63598633 C58.51548808 113.16837805 55.23863149 122.22816981 52.86669922 132.31567383 C52.39960127 136.66973027 52.44133221 140.94177042 52.55419922 145.31567383 C52.57740234 147.21410034 52.57740234 147.21410034 52.60107422 149.15087891 C52.65794795 153.53996558 52.76141957 157.92752386 52.86669922 162.31567383 C52.90547801 164.01146994 52.94404546 165.7072709 52.98242188 167.40307617 C53.06535042 171.04152704 53.14931362 174.67995205 53.23413086 178.31835938 C53.26677536 179.72038101 53.26677536 179.72038101 53.30007935 181.15072632 C53.34447943 183.05179436 53.38913667 184.95285641 53.43405151 186.85391235 C53.76063125 200.77576481 54.02569739 214.69695972 54.09887695 228.62271118 C54.11071087 230.53532823 54.12775845 232.44792049 54.15014648 234.36044312 C54.17969066 237.00583888 54.19000433 239.65060202 54.19482422 242.29614258 C54.20713074 243.08347778 54.21943726 243.87081299 54.2321167 244.68200684 C54.22314453 246.85546875 54.22314453 246.85546875 53.86669922 250.31567383 C46.99618921 254.89601384 36.5443801 253.47622727 28.54638672 253.48364258 C27.28835236 253.48697098 26.03031799 253.49029938 24.73416138 253.49372864 C22.08673533 253.49877067 19.43941217 253.50157279 16.79199219 253.50097656 C13.41527275 253.50087463 10.03876209 253.51457847 6.66209221 253.53174877 C3.41519838 253.54558719 0.16830602 253.54495813 -3.07861328 253.54614258 C-4.28292999 253.55332809 -5.4872467 253.56051361 -6.72805786 253.56791687 C-7.85968353 253.56484024 -8.9913092 253.56176361 -10.15722656 253.55859375 C-11.14490021 253.56001877 -12.13257385 253.56144379 -13.150177 253.56291199 C-16.13330078 253.31567383 -16.13330078 253.31567383 -23.13330078 251.31567383 C-23.62830078 241.91067383 -23.62830078 241.91067383 -24.13330078 232.31567383 C-25.67501953 232.28989258 -27.21673828 232.26411133 -28.80517578 232.23754883 C-30.83124581 232.18126911 -32.85728638 232.12392174 -34.88330078 232.06567383 C-35.89908203 232.05149414 -36.91486328 232.03731445 -37.96142578 232.02270508 C-39.43095703 231.97436523 -39.43095703 231.97436523 -40.93017578 231.92504883 C-41.8309082 231.90410156 -42.73164063 231.8831543 -43.65966797 231.86157227 C-46.99200562 231.12616889 -48.04206933 230.00217221 -50.13330078 227.31567383 C-50.62828541 224.10009098 -50.62828541 224.10009098 -50.62104797 220.21217346 C-50.62723287 219.13752135 -50.62723287 219.13752135 -50.63354272 218.04115909 C-50.64247763 215.63821659 -50.62280465 213.23636337 -50.60327148 210.83349609 C-50.60378037 209.10970935 -50.60603663 207.38592236 -50.60990906 205.66213989 C-50.61534259 200.96773887 -50.59585637 196.27373075 -50.5718081 191.5794003 C-50.55045145 186.63326343 -50.55110271 181.68712719 -50.54911804 176.74095154 C-50.54265773 168.39884758 -50.52140069 160.05688948 -50.48999023 151.71484375 C-50.45015996 141.1251173 -50.43236249 130.53548716 -50.42268085 119.94569492 C-50.41424721 110.74048955 -50.3970354 101.53530319 -50.37764335 92.33011508 C-50.37363718 90.38164025 -50.36989175 88.43316486 -50.36642098 86.484689 C-50.34548548 74.81588233 -50.295336 63.14801489 -50.1808815 51.47972488 C-50.14644523 47.9619938 -50.12218756 44.44438053 -50.10476303 40.92652512 C-50.08134872 36.56317393 -50.03203988 32.20081543 -49.96372449 27.83794391 C-49.94207755 26.21264329 -49.92878072 24.5872071 -49.92438567 22.96176827 C-49.91671346 20.73547711 -49.87827802 18.51177035 -49.83195496 16.28599548 C-49.81776111 15.03095183 -49.80356726 13.77590818 -49.78894329 12.48283291 C-49.13330078 9.31567383 -49.13330078 9.31567383 -46.71951771 6.94106388 C-33.8716221 -1.1336036 -14.67848718 -0.03912331 0 0 Z " fill="#FDFDFD" transform="translate(215.13330078125,116.684326171875)"/>
<path d="M0 0 C1.45496879 -0.00258678 2.90993687 -0.00560081 4.36490399 -0.0090034 C8.35016948 -0.01704014 12.33541692 -0.01886111 16.32068956 -0.01960087 C20.62425934 -0.02145727 24.92781988 -0.02900762 29.23138428 -0.03573608 C38.63670943 -0.04929697 48.04203031 -0.05534082 57.44736362 -0.05974674 C63.32579116 -0.06251335 69.20421707 -0.0667515 75.08264351 -0.07125092 C91.37409455 -0.08344139 107.66554428 -0.09374066 123.95699978 -0.09712601 C124.99897664 -0.09734557 126.0409535 -0.09756514 127.11450541 -0.09779136 C128.15890939 -0.09800964 129.20331337 -0.09822791 130.27936596 -0.09845281 C132.39555895 -0.09889626 134.51175195 -0.09934283 136.62794495 -0.09979248 C137.67763929 -0.10001391 138.72733363 -0.10023534 139.80883688 -0.10046348 C156.8038281 -0.10440844 173.79877636 -0.12185425 190.79375099 -0.145152 C208.26294976 -0.16890551 225.732127 -0.1813297 243.20134217 -0.18249393 C253.00122008 -0.18340852 262.80104203 -0.18910615 272.60090446 -0.20731354 C280.94856962 -0.22276869 289.29616152 -0.22780325 297.64383828 -0.21957543 C301.8970898 -0.21568782 306.15019404 -0.21650524 310.40342712 -0.23063278 C341.84049158 -0.32883871 369.50775174 2.0267864 393.41236877 24.71856689 C407.71520611 39.77418514 417.82044736 60.44695969 417.84457779 81.47469997 C417.84841893 82.73490158 417.85226008 83.9951032 417.85621762 85.29349273 C417.85543747 86.6843246 417.85455871 88.07515641 417.85359192 89.46598816 C417.85617708 90.94952982 417.85919066 92.43307078 417.86259532 93.91661078 C417.8706512 97.99006713 417.87245411 102.06350584 417.87319279 106.13696921 C417.87504586 110.53187953 417.88259459 114.92678075 417.889328 119.32168579 C417.90290291 128.93153405 417.90893504 138.54137814 417.91333866 148.15123439 C417.91610311 154.15526782 417.9203409 160.15929964 417.92484283 166.16333199 C417.93703555 182.7961247 417.94733411 199.42891613 417.95071793 216.06171322 C417.95093749 217.12603672 417.95115706 218.19036023 417.95138328 219.28693596 C417.95160156 220.35377169 417.95181983 221.42060743 417.95204473 222.51977152 C417.95248819 224.68149563 417.95293475 226.84321974 417.9533844 229.00494385 C417.95360583 230.07722811 417.95382726 231.14951238 417.9540554 232.25429011 C417.95800058 249.61611793 417.97544604 266.97790371 417.99874392 284.33971529 C418.02248627 302.17722509 418.03492113 320.01471382 418.03608584 337.85223967 C418.03700111 347.86223456 418.04271567 357.8721747 418.06090546 367.88215446 C418.07634555 376.4088881 418.08140399 384.93555008 418.07316735 393.46229505 C418.06927435 397.80844592 418.07012398 402.15445264 418.0842247 406.50058556 C418.09704536 410.48887621 418.09569532 414.47691562 418.08363399 418.46520633 C418.08169099 419.89866501 418.08468983 421.33214199 418.09347835 422.76557504 C418.16549016 435.31806064 416.90898526 447.90750931 411.46315002 459.39044189 C411.0053717 460.38672607 411.0053717 460.38672607 410.53834534 461.40313721 C401.76419225 480.0425765 388.08719979 494.30859843 369.58815002 503.45294189 C368.97503967 503.76650635 368.36192932 504.0800708 367.73023987 504.40313721 C349.69725628 512.79370185 329.79354001 511.71797418 310.40837824 511.64868152 C306.03411551 511.63746798 301.65990392 511.64954815 297.28564453 511.65852356 C288.74049513 511.67238701 280.19549447 511.66495164 271.65035228 511.64984798 C261.68266046 511.63290666 251.71500486 511.63620824 241.74730309 511.63994206 C223.95504574 511.64580777 206.16285937 511.63169858 188.37062073 511.60699463 C171.13524212 511.58306683 153.89995828 511.57599627 136.66456604 511.58648682 C117.8577877 511.59791344 99.05105309 511.59980539 80.24427527 511.58538872 C78.23649609 511.58386301 76.22871691 511.58234265 74.22093773 511.58082771 C73.23327849 511.5800699 72.24561926 511.57931208 71.22803095 511.57853131 C64.29183345 511.5738028 57.35565558 511.57562963 50.41945839 511.57989311 C41.96070513 511.58483552 33.50204118 511.57876517 25.0433083 511.55899882 C20.73354001 511.54917348 16.4239073 511.54396991 12.11413193 511.55189133 C8.15960888 511.55901077 4.20535792 511.55199935 0.25087043 511.5342877 C-1.17010899 511.53028346 -2.59111373 511.53117424 -4.01208331 511.53780656 C-28.25833193 511.64118084 -49.45089741 504.05408535 -67.11888123 487.30841064 C-76.23765094 478.18964093 -83.05836639 468.07994258 -87.66184998 456.01544189 C-87.9004071 455.39540283 -88.13896423 454.77536377 -88.38475037 454.13653564 C-92.14825268 443.6689123 -92.58066875 433.17895721 -92.55427551 422.15115356 C-92.55801853 420.65647088 -92.56262263 419.16179015 -92.56800616 417.66711247 C-92.58017125 413.58599171 -92.5799834 409.50495332 -92.57761741 405.42381859 C-92.57720758 401.01190826 -92.58826414 396.60002376 -92.59773254 392.18812561 C-92.61430812 383.55382902 -92.61984054 374.91955974 -92.6209573 366.28524856 C-92.62190946 359.26238798 -92.62602813 352.23953636 -92.63235855 345.21667862 C-92.64996198 325.28025716 -92.65919889 305.34385718 -92.6576976 285.40742789 C-92.65761769 284.33383423 -92.65753778 283.26024057 -92.65745544 282.15411377 C-92.6573328 280.54174372 -92.6573328 280.54174372 -92.65720768 278.89680053 C-92.65639516 261.48489173 -92.67552678 244.0730695 -92.70373218 226.66118573 C-92.73250329 208.75796277 -92.74627013 190.85478199 -92.74454463 172.95153534 C-92.74388216 162.910238 -92.7493114 152.86903142 -92.77090073 142.82775497 C-92.78916829 134.27702503 -92.7934143 125.726427 -92.77988188 117.17568593 C-92.77338012 112.81908782 -92.77313314 108.46274236 -92.79058838 104.10616875 C-92.80644901 100.10618387 -92.80332507 96.10664921 -92.78602012 92.10667445 C-92.78297849 90.67131116 -92.78647347 89.23591315 -92.79774027 87.80059086 C-92.90499863 73.14829341 -90.24596041 59.1399038 -83.28684998 46.14044189 C-82.80731873 45.19040283 -82.32778748 44.24036377 -81.83372498 43.26153564 C-71.65684176 24.31573606 -53.68995157 10.20881013 -33.20872498 3.78497314 C-22.05888257 0.59540942 -11.52752476 -0.0082195 0 0 Z M-43.97434998 15.20294189 C-44.68003113 15.58579346 -45.38571228 15.96864502 -46.11277771 16.36309814 C-53.13469469 20.34237043 -58.71782317 25.35169628 -64.28684998 31.14044189 C-65.02290466 31.86876221 -65.75895935 32.59708252 -66.51731873 33.34747314 C-78.71540342 46.06462527 -86.39629454 64.38088152 -86.41827774 82.0374136 C-86.42211889 83.20008013 -86.42596003 84.36274667 -86.42991757 85.56064552 C-86.42905109 86.82862246 -86.42818461 88.0965994 -86.42729187 89.40299988 C-86.42987741 90.77104719 -86.4328911 92.13909375 -86.43629527 93.50713927 C-86.44434669 97.26135185 -86.44615381 101.0155453 -86.44689274 104.7697655 C-86.4487466 108.82111472 -86.45629573 112.8724541 -86.46302795 116.92379761 C-86.47659982 125.78160363 -86.48263455 134.63940511 -86.48703861 143.4972198 C-86.48980366 149.0322261 -86.49404156 154.56723067 -86.49854279 160.10223579 C-86.51073525 175.43798049 -86.52103377 190.77372379 -86.52441788 206.10947323 C-86.52463744 207.09070362 -86.52485701 208.07193401 -86.52508323 209.08289865 C-86.52530151 210.06643584 -86.52551978 211.04997303 -86.52574468 212.06331438 C-86.52618814 214.05622733 -86.5266347 216.04914028 -86.52708435 218.04205322 C-86.52730578 219.03060028 -86.52752721 220.01914733 -86.52775535 221.03765035 C-86.53170002 237.04150927 -86.54914406 253.04532256 -86.57244387 269.04916387 C-86.59619237 285.49449853 -86.60862136 301.93981034 -86.6097858 318.38516241 C-86.61070073 327.61268032 -86.61640692 336.84013882 -86.63460541 346.0676403 C-86.65005385 353.92829565 -86.65509909 361.78887324 -86.64686731 369.64954089 C-86.64297718 373.6554516 -86.64380955 377.66120592 -86.65792465 381.66709709 C-86.67076301 385.34452368 -86.66938022 389.02167799 -86.65733394 392.69910473 C-86.65448483 394.63826342 -86.6662371 396.57742725 -86.678756 398.51654762 C-86.55405001 420.96294908 -79.08059555 442.1269909 -63.23216248 458.32012939 C-40.54152785 480.52894564 -14.89747972 481.7554622 14.88719714 481.66334057 C19.26013986 481.65421236 23.63302086 481.66829788 28.00595093 481.67926025 C36.55089785 481.69696746 45.09570356 481.6932406 53.64065582 481.68160969 C60.58997201 481.67254535 67.53924885 481.67136429 74.48856926 481.67570496 C75.48077641 481.67631789 76.47298356 481.67693082 77.4952576 481.67756233 C79.51141983 481.67884133 81.52758205 481.68013819 83.54374426 481.68145269 C102.41117546 481.69283549 121.27852868 481.67978068 140.14594709 481.65825123 C156.30779137 481.64037958 172.4695207 481.64348939 188.63136292 481.66192627 C207.43668314 481.68336894 226.2419352 481.69173997 245.04726595 481.67947721 C247.05535947 481.67820312 249.06345301 481.67694564 251.07154655 481.67570496 C252.05936007 481.67508785 253.04717358 481.67447075 254.06492083 481.67383495 C261.00014609 481.67039244 267.93532782 481.67618655 274.87054634 481.68562317 C283.33041167 481.69688224 291.79012868 481.69372124 300.24997718 481.67250019 C304.55990253 481.66204255 308.86958129 481.65777685 313.17950439 481.6710968 C317.13542207 481.68313713 321.09086776 481.6762698 325.04674345 481.65518659 C326.4670981 481.65076926 327.88749379 481.65287506 329.3078214 481.66268975 C342.33649709 481.74571583 355.43519422 479.66309264 367.02565002 473.39044189 C367.68170227 473.04827637 368.33775452 472.70611084 369.01368713 472.35357666 C388.44014695 461.95494457 400.91309525 446.18286358 408.52565002 425.64044189 C411.61102351 415.03303588 412.00816267 404.01351353 411.98057556 393.04319763 C411.98432329 391.68204398 411.98892922 390.32089247 411.99430621 388.95974427 C412.00641261 385.26165096 412.00629056 381.56364893 412.00391746 377.86554039 C412.00350613 373.86063839 412.01457808 369.85576446 412.02403259 365.85087585 C412.04057433 358.02111091 412.04613899 350.19137609 412.04725735 342.36159512 C412.04821086 335.99241012 412.05233618 329.62323499 412.0586586 323.25405312 C412.07625057 305.16149409 412.0855004 287.06895869 412.08399765 268.97639104 C412.08391774 268.00306444 412.08383783 267.02973785 412.08375549 266.0269165 C412.08363285 264.56512664 412.08363285 264.56512664 412.08350773 263.07380567 C412.0826949 247.28194868 412.10183734 231.49018707 412.13003223 215.69835766 C412.15881251 199.44937727 412.17256977 183.20044333 412.17084467 166.95143682 C412.17018266 157.84244807 412.17559219 148.7335594 412.19720078 139.62459373 C412.21548021 131.86993458 412.21970452 124.11542091 412.20618193 116.36074945 C412.19968687 112.41119953 412.19940843 108.46192818 412.21688843 104.5124054 C412.61413437 77.23496985 412.61413437 77.23496985 403.90065002 51.70294189 C403.38027161 50.71850098 403.38027161 50.71850098 402.84938049 49.71417236 C392.60933642 30.72498977 377.23131009 17.03494119 356.71315002 10.14044189 C346.88643442 7.45278381 337.49477684 6.70599146 327.34963989 6.75276184 C325.85094094 6.74857845 324.35224516 6.74309546 322.85355514 6.73644203 C318.77530955 6.72210068 314.69726798 6.72619632 310.61901176 6.73360884 C306.20514125 6.73836644 301.79131325 6.72580796 297.37745667 6.71559143 C288.74623185 6.69844915 280.11507997 6.69755382 271.48384256 6.70280433 C264.46484687 6.70685547 257.44587265 6.7053913 250.42687798 6.70005608 C249.42564955 6.69930765 248.42442112 6.69855923 247.39285244 6.69778813 C245.35848888 6.69625656 243.32412532 6.69471822 241.28976177 6.69317316 C222.23878655 6.67946489 203.18785246 6.68487424 184.13687818 6.69635838 C166.73027181 6.70629104 149.32377172 6.69334651 131.91718174 6.66942418 C114.0161286 6.64500883 96.11512492 6.63543117 78.21405548 6.64207691 C68.17510793 6.64556345 58.13624211 6.64337433 48.09730721 6.62582588 C39.55244139 6.61107351 31.00771488 6.61050816 22.46285171 6.62789679 C18.10851093 6.63638381 13.7544187 6.63861287 9.40009117 6.62324524 C5.40463987 6.60931939 1.4096482 6.61426141 -2.58577705 6.63348448 C-4.02168465 6.63722074 -5.45762979 6.63439198 -6.89350372 6.62387282 C-19.99026009 6.53484158 -32.39993484 8.79528488 -43.97434998 15.20294189 Z " fill="#030303" transform="translate(93.28684997558594,0.85955810546875)"/>
<path d="M0 0 C2.52499502 0.00321624 5.04887434 -0.02062444 7.57373047 -0.0456543 C9.20523944 -0.04792309 10.83675149 -0.04863275 12.46826172 -0.04760742 C13.21000641 -0.05681717 13.9517511 -0.06602692 14.7159729 -0.07551575 C15.421362 -0.06928696 16.1267511 -0.06305817 16.85351562 -0.05664062 C17.46176178 -0.05727005 18.07000793 -0.05789948 18.69668579 -0.05854797 C20.86669922 0.31567383 20.86669922 0.31567383 27.86669922 3.31567383 C28.36169922 13.71067383 28.36169922 13.71067383 28.86669922 24.31567383 C30.12482422 22.97504883 31.38294922 21.63442383 32.67919922 20.25317383 C45.81854254 7.21616184 63.23437215 1.05921555 81.55810547 1.09106445 C82.69119141 1.10331055 83.82427734 1.11555664 84.99169922 1.12817383 C86.13251953 1.12881836 87.27333984 1.12946289 88.44873047 1.13012695 C91.59114509 1.14655072 94.72597456 1.21520932 97.86669922 1.31567383 C98.59985352 1.3238916 99.33300781 1.33210938 100.08837891 1.34057617 C103.56691821 1.55277263 104.81395182 2.26241597 107.28857422 4.76098633 C109.3528223 9.41065403 109.3131261 13.17423352 109.11669922 18.19067383 C109.09865234 19.06981445 109.08060547 19.94895508 109.06201172 20.85473633 C109.01518301 23.00885703 108.94344916 25.16241156 108.86669922 27.31567383 C109.56794922 27.30407227 110.26919922 27.2924707 110.99169922 27.28051758 C116.70688416 27.2261612 122.24964801 27.19226359 127.86669922 28.31567383 C130.97461509 32.97754763 130.20563899 37.76614428 130.17919922 43.25317383 C130.17500977 44.42235352 130.17082031 45.5915332 130.16650391 46.79614258 C130.03315718 57.19151321 128.88155421 67.13168948 126.86669922 77.31567383 C126.71152832 78.12568848 126.55635742 78.93570313 126.39648438 79.77026367 C124.71954541 88.39427701 122.94067127 96.45872772 118.86669922 104.31567383 C113.05836753 103.93047906 107.37506492 103.48873854 101.67919922 102.25317383 C89.68799224 99.97658236 77.32608973 99.67608015 66.88623047 106.63598633 C58.51548808 113.16837805 55.23863149 122.22816981 52.86669922 132.31567383 C52.39960127 136.66973027 52.44133221 140.94177042 52.55419922 145.31567383 C52.57740234 147.21410034 52.57740234 147.21410034 52.60107422 149.15087891 C52.65794795 153.53996558 52.76141957 157.92752386 52.86669922 162.31567383 C52.90547801 164.01146994 52.94404546 165.7072709 52.98242188 167.40307617 C53.06535042 171.04152704 53.14931362 174.67995205 53.23413086 178.31835938 C53.26677536 179.72038101 53.26677536 179.72038101 53.30007935 181.15072632 C53.34447943 183.05179436 53.38913667 184.95285641 53.43405151 186.85391235 C53.76063125 200.77576481 54.02569739 214.69695972 54.09887695 228.62271118 C54.11071087 230.53532823 54.12775845 232.44792049 54.15014648 234.36044312 C54.17969066 237.00583888 54.19000433 239.65060202 54.19482422 242.29614258 C54.20713074 243.08347778 54.21943726 243.87081299 54.2321167 244.68200684 C54.22314453 246.85546875 54.22314453 246.85546875 53.86669922 250.31567383 C46.99618921 254.89601384 36.5443801 253.47622727 28.54638672 253.48364258 C27.28835236 253.48697098 26.03031799 253.49029938 24.73416138 253.49372864 C22.08673533 253.49877067 19.43941217 253.50157279 16.79199219 253.50097656 C13.41527275 253.50087463 10.03876209 253.51457847 6.66209221 253.53174877 C3.41519838 253.54558719 0.16830602 253.54495813 -3.07861328 253.54614258 C-4.28292999 253.55332809 -5.4872467 253.56051361 -6.72805786 253.56791687 C-7.85968353 253.56484024 -8.9913092 253.56176361 -10.15722656 253.55859375 C-11.14490021 253.56001877 -12.13257385 253.56144379 -13.150177 253.56291199 C-16.13330078 253.31567383 -16.13330078 253.31567383 -23.13330078 251.31567383 C-23.62830078 241.91067383 -23.62830078 241.91067383 -24.13330078 232.31567383 C-25.67501953 232.28989258 -27.21673828 232.26411133 -28.80517578 232.23754883 C-30.83124581 232.18126911 -32.85728638 232.12392174 -34.88330078 232.06567383 C-35.89908203 232.05149414 -36.91486328 232.03731445 -37.96142578 232.02270508 C-39.43095703 231.97436523 -39.43095703 231.97436523 -40.93017578 231.92504883 C-41.8309082 231.90410156 -42.73164063 231.8831543 -43.65966797 231.86157227 C-46.99200562 231.12616889 -48.04206933 230.00217221 -50.13330078 227.31567383 C-50.62828541 224.10009098 -50.62828541 224.10009098 -50.62104797 220.21217346 C-50.62723287 219.13752135 -50.62723287 219.13752135 -50.63354272 218.04115909 C-50.64247763 215.63821659 -50.62280465 213.23636337 -50.60327148 210.83349609 C-50.60378037 209.10970935 -50.60603663 207.38592236 -50.60990906 205.66213989 C-50.61534259 200.96773887 -50.59585637 196.27373075 -50.5718081 191.5794003 C-50.55045145 186.63326343 -50.55110271 181.68712719 -50.54911804 176.74095154 C-50.54265773 168.39884758 -50.52140069 160.05688948 -50.48999023 151.71484375 C-50.45015996 141.1251173 -50.43236249 130.53548716 -50.42268085 119.94569492 C-50.41424721 110.74048955 -50.3970354 101.53530319 -50.37764335 92.33011508 C-50.37363718 90.38164025 -50.36989175 88.43316486 -50.36642098 86.484689 C-50.34548548 74.81588233 -50.295336 63.14801489 -50.1808815 51.47972488 C-50.14644523 47.9619938 -50.12218756 44.44438053 -50.10476303 40.92652512 C-50.08134872 36.56317393 -50.03203988 32.20081543 -49.96372449 27.83794391 C-49.94207755 26.21264329 -49.92878072 24.5872071 -49.92438567 22.96176827 C-49.91671346 20.73547711 -49.87827802 18.51177035 -49.83195496 16.28599548 C-49.81776111 15.03095183 -49.80356726 13.77590818 -49.78894329 12.48283291 C-49.13330078 9.31567383 -49.13330078 9.31567383 -46.71951771 6.94106388 C-33.8716221 -1.1336036 -14.67848718 -0.03912331 0 0 Z M-37.88987732 9.86105347 C-38.87377158 10.13293928 -39.85766584 10.4048251 -40.87137508 10.68494987 C-41.61781056 10.89308878 -42.36424604 11.10122768 -43.13330078 11.31567383 C-43.8828784 38.61712808 -44.27896728 65.8940796 -44.23469472 93.20548797 C-44.22825668 97.88310945 -44.22784182 102.56073231 -44.22666931 107.23835754 C-44.22361417 116.01655006 -44.2154831 124.79472947 -44.20531982 133.57291633 C-44.19397304 143.60032307 -44.18860247 153.62773058 -44.18362439 163.65514219 C-44.17329244 184.20865993 -44.15581139 204.76216604 -44.13330078 225.31567383 C-39.35658748 225.88986375 -34.63752169 226.44034384 -29.81982422 226.44506836 C-28.88144714 226.44822052 -27.94307007 226.45137268 -26.97625732 226.45462036 C-25.99167542 226.45259613 -25.00709351 226.4505719 -23.99267578 226.44848633 C-22.94863586 226.44944305 -21.90459595 226.45039978 -20.82891846 226.4513855 C-18.63041117 226.45206262 -16.43190183 226.45024116 -14.23339844 226.44604492 C-10.90701693 226.44071185 -7.58077177 226.44599475 -4.25439453 226.45239258 C6.1607686 226.45532247 16.50034356 226.44155956 26.86669922 225.31567383 C26.97654785 210.3171101 26.91891659 195.34673496 26.43707275 180.35552979 C25.95604035 165.13062487 25.67433626 149.90322544 25.57958984 134.67098999 C25.56282854 132.41476084 25.53904556 130.15857156 25.5078125 127.90249634 C25.28586446 111.16583733 25.96460228 96.89781806 37.38623047 83.53833008 C45.89747958 75.39983641 56.02724864 73.70284953 67.34399414 73.84936523 C73.81879212 74.07874616 79.83714945 75.0291561 86.11669922 76.65942383 C89.04395447 77.47041957 89.04395447 77.47041957 92.86669922 77.31567383 C96.26875483 67.08261329 99.09310192 56.97942759 100.86669922 46.31567383 C101.07294922 45.0755957 101.27919922 43.83551758 101.49169922 42.55786133 C103.10488425 31.46721426 103.07876562 20.49972983 102.86669922 9.31567383 C88.50488044 3.23388322 68.93200146 6.7861706 54.86669922 12.31567383 C39.37872712 18.65781471 31.43976287 30.0272344 22.86669922 44.31567383 C22.53669922 31.77567383 22.20669922 19.23567383 21.86669922 6.31567383 C13.23513672 6.25379883 13.23513672 6.25379883 4.42919922 6.19067383 C2.65230713 6.17246582 0.87541504 6.15425781 -0.95532227 6.13549805 C-13.44749292 6.05944713 -25.79059495 6.50449403 -37.88987732 9.86105347 Z " fill="#040404" transform="translate(215.13330078125,116.684326171875)"/>
<path d="M0 0 C2.22066873 2.22066873 3.25486871 4.27181275 4.6875 7.0625 C15.21349635 26.54193421 32.30060401 39.73933741 53 47 C63.15119738 49.66097591 72.86444057 50.43378209 83.35209656 50.3742218 C84.83729629 50.37697018 86.32249406 50.38102888 87.8076871 50.38626546 C91.84387276 50.39674698 95.87983354 50.38879269 99.91600907 50.37751496 C104.28616814 50.36860771 108.65629984 50.37713507 113.02645874 50.38337708 C121.56898579 50.39282864 130.11142792 50.38629766 138.65394863 50.37411413 C148.61318652 50.3604429 158.57240455 50.36213645 168.53164945 50.36424746 C186.30570358 50.36743191 204.07971754 50.35580003 221.85375977 50.33618164 C239.08163679 50.31717123 256.30946675 50.31009704 273.53735352 50.31567383 C292.32429719 50.32173736 311.11122022 50.32154468 329.89816219 50.310188 C331.90284494 50.30898077 333.9075277 50.30777479 335.91221046 50.30657005 C336.89841269 50.30596651 337.88461491 50.30536298 338.90070206 50.30474115 C345.8352644 50.30086931 352.76981904 50.30125274 359.70438194 50.3031559 C368.15815101 50.30528221 376.61187897 50.30002054 385.06563648 50.28554235 C389.37498762 50.27832017 393.68427902 50.27420272 397.99363518 50.27878571 C401.9443647 50.28288499 405.89497129 50.27763219 409.84568224 50.26515963 C411.26871908 50.26225041 412.69176765 50.26263699 414.11480137 50.26680271 C426.38675354 50.29944356 437.53876126 49.12907848 448.9375 44.4375 C449.79722412 44.08598877 450.65694824 43.73447754 451.54272461 43.37231445 C471.71522635 34.80471861 485.58194072 19.4541787 495 0 C497.69666484 8.08999451 490.99522366 19.51992724 487.7265625 26.859375 C478.47967928 45.35314143 461.51003813 57.45765351 442.7265625 64.82421875 C432.06976883 68.18658237 422.15004139 69.43992627 410.99798584 69.38768005 C409.52632406 69.39186255 408.0546655 69.39734505 406.58301282 69.40399987 C402.5747775 69.41835348 398.56674957 69.41424162 394.55850339 69.40683305 C390.22160534 69.40207842 385.88475069 69.41463151 381.54786682 69.42485046 C373.06489326 69.44199983 364.5819939 69.4428864 356.09900752 69.43763756 C349.19918882 69.43358692 342.29939195 69.43505002 335.39957428 69.44038582 C334.41543998 69.44113424 333.43130567 69.44188266 332.41734912 69.44265376 C330.41769748 69.44418534 328.41804586 69.44572368 326.41839424 69.44726873 C307.68783469 69.46098015 288.95731697 69.45556595 270.22675839 69.44408352 C253.11889904 69.43415564 236.01114792 69.44708655 218.90330526 69.47101771 C201.30737728 69.49544481 183.71149963 69.50500753 166.11555505 69.49836498 C156.24867369 69.49488039 146.38187549 69.49705434 136.51500702 69.51461601 C128.11436869 69.52938335 119.71387207 69.52991463 111.31323639 69.5125451 C107.03358814 69.50406932 102.75419254 69.50180095 98.47455788 69.51719666 C58.93404506 69.64934324 58.93404506 69.64934324 43.5 61.1875 C42.84330322 60.84348145 42.18660645 60.49946289 41.51000977 60.14501953 C36.2146156 57.29471094 31.53626417 53.9491068 27 50 C26.41347656 49.55527344 25.82695313 49.11054688 25.22265625 48.65234375 C11.56698641 38.03126721 3.52279493 20.58558109 0 4 C0 2.68 0 1.36 0 0 Z " fill="#BDBDBD" transform="translate(8,437)"/>
</svg>
