<?xml version="1.0" encoding="UTF-8"?>
<svg version="1.1" xmlns="http://www.w3.org/2000/svg" width="512" height="512">
<path d="M0 0 C2.61216492 0.7080413 3.87635557 1.77515401 5.86504966 3.60167779 C6.9100381 4.55784118 6.9100381 4.55784118 7.97613741 5.533321 C11.54224003 8.92385676 15.05034 12.36493891 18.52425504 15.8498332 C19.3351637 16.65928842 20.14607236 17.46874364 20.98155401 18.3027278 C23.69425989 21.01178847 26.40339659 23.72438995 29.11255861 26.43699427 C31.07754202 28.40137949 33.04327657 30.36501247 35.00897438 32.32868279 C39.28026829 36.59637098 43.5497062 40.86590884 47.81792093 45.1366765 C54.16464684 51.48718826 60.51423242 57.83483503 66.86437891 64.18192618 C78.20459602 75.51687992 89.54195357 86.85469041 100.87809446 98.19372064 C110.79478421 108.11292557 120.71240242 118.03120102 130.63094736 127.94855089 C131.28876703 128.60629418 131.94658671 129.26403748 132.62434032 129.94171239 C135.29455422 132.61161496 137.96477166 135.28151399 140.63499491 137.95140721 C165.67881123 162.99216503 190.71971112 188.03583747 215.75930663 213.08081582 C238.0192649 235.34552298 260.28181156 257.6076389 282.54653383 279.86758203 C307.5546449 304.87034306 332.56114554 329.87471293 357.56503517 354.88169564 C360.22821772 357.54519892 362.89140421 360.20869825 365.55459237 362.87219591 C366.21034943 363.52803204 366.86610648 364.18386817 367.54173496 364.85957812 C377.45851526 374.77749747 387.37653186 384.69417938 397.29514337 394.61026735 C408.56462601 405.87689708 419.83233303 417.14529917 431.09766972 428.41607444 C437.4080122 434.72936257 443.71973955 441.04125877 450.0334351 447.35119365 C454.24347883 451.55900539 458.45172061 455.76861339 462.65846265 459.97972597 C465.05985347 462.38350949 467.46204821 464.78647501 469.86641991 467.18727725 C472.44839673 469.76624951 475.02732866 472.34822717 477.60546232 474.93104048 C478.74118775 476.06325416 478.74118775 476.06325416 479.89985714 477.21834086 C480.5809278 477.90191504 481.26199846 478.58548922 481.96370763 479.28977777 C482.5544881 479.880626 483.14526858 480.47147423 483.75395149 481.08022696 C486.42269393 483.99266559 486.33763495 486.65010495 486.55019594 490.50552149 C485.90764134 493.62986953 484.64630451 494.64147037 482.12441469 496.57583399 C479.29342548 496.96781023 476.85206753 497.11355946 474.02211976 497.07919855 C473.19477641 497.08501231 472.36743307 497.09082608 471.51501871 497.09681601 C468.72436953 497.11149063 465.93458966 497.0974962 463.14394594 497.08376856 C461.13043731 497.08837452 459.11693204 497.09472538 457.10343385 497.10267754 C451.55613482 497.11943575 446.00910966 497.11109502 440.4618094 497.09873266 C434.48490467 497.089711 428.50804822 497.10363753 422.53115297 497.11465235 C411.494414 497.13144216 400.45775072 497.12994333 389.42101121 497.11900647 C379.22594489 497.108953 369.03091073 497.10631335 358.83584047 497.11109705 C358.1601587 497.11140259 357.48447693 497.11170813 356.78831995 497.11202293 C354.04565987 497.11326824 351.3029998 497.11454183 348.56033975 497.11586198 C322.82045444 497.12810408 297.08062501 497.1169945 271.34074831 497.0954744 C248.4613155 497.07649129 225.58197172 497.07818977 202.70253969 497.09731836 C177.01040237 497.11872663 151.31831445 497.12723595 125.62616945 497.11486931 C122.88844261 497.1135864 120.15071576 497.11233504 117.4129889 497.11109705 C116.73886716 497.11078074 116.06474542 497.11046443 115.37019575 497.11013854 C105.18034504 497.1055844 94.99052999 497.11091763 84.80068422 497.12101526 C73.21692785 497.1324368 61.63325626 497.12923996 50.04950929 497.10789229 C44.13514698 497.09735327 38.22096575 497.09330852 32.30660463 497.10648889 C26.89825831 497.11835963 21.49026189 497.1119384 16.08194757 497.09057869 C14.11969754 497.08608998 12.15741828 497.0884293 10.19518686 497.09808184 C7.53860072 497.11015315 4.88323098 497.09786599 2.22670961 497.07919855 C1.06980591 497.09324555 1.06980591 497.09324555 -0.11046958 497.10757632 C-3.37713761 497.06133752 -5.54751818 496.77799068 -8.35051846 495.05076713 C-10.48790698 491.58213644 -10.42693788 488.42580687 -10.37894988 484.47353907 C-10.38476364 483.64619572 -10.3905774 482.81885237 -10.39656734 481.96643801 C-10.41124195 479.17578884 -10.39724752 476.38600896 -10.38351988 473.59536524 C-10.38812585 471.58185661 -10.39447671 469.56835134 -10.40242886 467.55485315 C-10.41918708 462.00755412 -10.41084635 456.46052896 -10.39848399 450.9132287 C-10.38946232 444.93632397 -10.40338886 438.95946752 -10.41440367 432.98257227 C-10.43119348 421.9458333 -10.42969466 410.90917003 -10.4187578 399.87243051 C-10.40870433 389.67736419 -10.40606467 379.48233003 -10.41084838 369.28725977 C-10.41115392 368.611578 -10.41145946 367.93589623 -10.41177426 367.23973925 C-10.41301956 364.49707917 -10.41429316 361.7544191 -10.41561331 359.01175905 C-10.42785541 333.27187374 -10.41674582 307.53204431 -10.39522572 281.79216762 C-10.37624261 258.9127348 -10.37794109 236.03339103 -10.39706969 213.15395899 C-10.41847796 187.46182167 -10.42698728 161.76973375 -10.41462063 136.07758875 C-10.41333772 133.33986191 -10.41208636 130.60213506 -10.41084838 127.86440821 C-10.41053207 127.19028647 -10.41021576 126.51616472 -10.40988986 125.82161505 C-10.40533572 115.63176434 -10.41066896 105.44194929 -10.42076659 95.25210352 C-10.43218812 83.66834716 -10.42899129 72.08467556 -10.40764361 60.50092859 C-10.3971046 54.58656628 -10.39305985 48.67238505 -10.40624022 42.75802393 C-10.41811096 37.34967762 -10.41168973 31.94168119 -10.39033001 26.53336687 C-10.3858413 24.57111684 -10.38818062 22.60883758 -10.39783316 20.64660616 C-10.40990448 17.99002002 -10.39761732 15.33465028 -10.37894988 12.67812891 C-10.38831454 11.90685978 -10.39767921 11.13559065 -10.40732765 10.34094973 C-10.3586161 6.89958786 -10.13170248 4.92691657 -8.07850003 2.1124093 C-5.41672841 0.25577249 -3.23772389 -0.17009137 0 0 Z M86.12441469 110.57583399 C84.29884945 112.50097551 82.55215941 114.45104989 80.81191469 116.45083399 C60.38275531 139.1293019 35.86850049 147.16781839 6.12441469 152.57583399 C6.12441469 223.85583399 6.12441469 295.13583399 6.12441469 368.57583399 C13.71441469 369.89583399 21.30441469 371.21583399 29.12441469 372.57583399 C45.22986078 377.45283527 59.72936251 384.27067309 72.80410219 394.92349024 C75.05694393 396.86586905 75.05694393 396.86586905 78.12441469 396.57583399 C80.52478686 394.625443 80.52478686 394.625443 83.07880617 391.98220606 C83.57547928 391.48809622 84.07215239 390.99398639 84.5838762 390.48490353 C86.25394216 388.81979701 87.91302919 387.14415967 89.57241273 385.46841211 C90.7643141 384.27566494 91.95687563 383.08357717 93.15004945 381.89210291 C96.39412441 378.64889114 99.62884596 375.39649128 102.86201668 372.14241381 C106.23993657 368.74578114 109.6263145 365.35760301 113.01182008 361.96853418 C119.42449356 355.54652434 125.82947938 349.1169032 132.23176581 342.68453998 C139.51962484 335.36318643 146.81597141 328.05031683 154.11305774 320.73816175 C169.126334 305.69350043 184.12887268 290.63817035 199.12441469 275.57583399 C202.53500872 277.18118686 204.74233953 278.98102299 207.37441469 281.70083399 C208.08082094 282.42528711 208.78722719 283.14974024 209.51503969 283.89614649 C210.31168031 284.7275918 210.31168031 284.7275918 211.12441469 285.57583399 C209.55562128 289.35131853 207.20539737 291.74136693 204.32824159 294.61251612 C203.83650646 295.1059601 203.34477132 295.59940408 202.83813513 296.10780091 C201.19071797 297.75850991 199.53625894 299.40197319 197.8817389 301.04556055 C196.69876336 302.22797192 195.5162281 303.41082393 194.33410097 304.5940835 C191.123909 307.80484971 187.90758417 311.00940845 184.69013572 314.21290083 C181.32864943 317.56189187 177.9728191 320.91654054 174.61638856 324.27059717 C168.25974653 330.6210209 161.89802305 336.96632879 155.5344652 343.30982156 C148.28998796 350.53195072 141.05118314 357.75975393 133.81285286 364.98804302 C118.92301677 379.85696917 104.02605972 394.7187434 89.12441469 409.57583399 C89.53329423 410.11739633 89.94217378 410.65895868 90.36344362 411.21693201 C90.90146104 411.9314805 91.43947847 412.64602899 91.99379945 413.38223047 C92.526429 414.08879282 93.05905855 414.79535517 93.60782838 415.52332849 C108.3092165 435.41977606 114.06004973 456.18964422 118.12441469 480.57583399 C189.40441469 480.57583399 260.68441469 480.57583399 334.12441469 480.57583399 C335.11441469 474.30583399 336.10441469 468.03583399 337.12441469 461.57583399 C343.70260265 438.70879965 355.61676869 414.24759799 376.12441469 400.57583399 C374.56402919 396.8394444 372.26453896 394.46534235 369.41733766 391.61707468 C368.93275429 391.12958443 368.44817092 390.64209418 367.94890321 390.13983149 C366.31721883 388.5008244 364.67847786 386.86906017 363.03969789 385.23714991 C361.85927978 384.05442828 360.67929817 382.87127088 359.499717 381.68771453 C356.25175153 378.43137772 352.99755002 375.18133542 349.74230647 371.93227644 C346.2349359 368.42941969 342.73331122 364.92082731 339.23095155 361.41296167 C332.36736215 354.54046574 325.49836039 347.67340398 318.62742138 340.80825679 C313.0460111 335.2313573 307.46654872 329.65251605 301.88848329 324.07227106 C301.0955784 323.27905971 300.30267351 322.48584835 299.4857412 321.66860029 C297.87516925 320.05738891 296.26460179 318.44617303 294.65403879 316.83495269 C279.54219942 301.71740652 264.42422907 286.60600344 249.30416716 271.49668179 C236.31727022 258.51872413 223.33563098 245.53552665 210.35781312 232.54849024 C195.30064866 217.48063526 180.24026114 202.41601395 165.17467618 187.35657782 C163.56989528 185.75243404 161.96511856 184.14828607 160.36034608 182.54413385 C159.57068195 181.75477827 158.78101781 180.96542268 157.96742446 180.15214723 C152.39002689 174.57648001 146.81496072 168.99848811 141.24077821 163.41960688 C134.45368259 156.62691609 127.66306393 149.83777148 120.86783076 143.05322091 C117.39778597 139.58845076 113.92939361 136.12206685 110.46527696 132.65136881 C107.29913537 129.47930274 104.12847807 126.31182714 100.95402873 123.14807568 C99.80157093 121.99786684 98.65082665 120.84593827 97.50190342 119.69219879 C95.94963261 118.13391698 94.39143982 116.58181915 92.83149171 115.03122873 C91.96453518 114.16459691 91.09757865 113.29796508 90.20435071 112.40507169 C88.33575779 110.35569971 88.33575779 110.35569971 86.12441469 110.57583399 Z M6.12441469 385.57583399 C6.12441469 412.63583399 6.12441469 439.69583399 6.12441469 467.57583399 C10.48949524 463.83433637 14.57159131 460.25223049 18.60073305 456.21304102 C19.34841447 455.46557863 19.34841447 455.46557863 20.11120057 454.70301599 C21.73127309 453.08225595 23.34779081 451.45800117 24.96425844 449.83364649 C26.09746668 448.69856993 27.2308983 447.56371636 28.36454225 446.42907495 C31.32749804 443.46232654 34.28743662 440.49258596 37.24672914 437.52218409 C40.27508325 434.48354538 43.30631968 431.4477849 46.33730531 428.41177149 C52.26914558 422.46925139 58.1977973 416.52356298 64.12441469 410.57583399 C62.76166496 406.48758482 60.01702393 405.09817135 56.56191469 402.82583399 C55.89297182 402.38481348 55.22402894 401.94379297 54.53481508 401.48940821 C39.59044768 391.92070002 23.79191822 387.04812595 6.12441469 385.57583399 Z M72.25828004 426.1820199 C71.7324785 426.71344095 71.20667695 427.244862 70.66494203 427.79238672 C70.10869645 428.34673395 69.55245088 428.90108118 68.97934938 429.47222681 C67.1347559 431.31310362 65.29748102 433.16110368 63.46035219 435.00942774 C62.18562092 436.28535033 60.91052064 437.56090435 59.63506532 438.83610315 C56.96043734 441.5122975 54.2892105 444.19182623 51.62050844 446.87392969 C48.19096057 450.32047617 44.75485789 453.76039443 41.31642175 457.19807119 C38.6825503 459.8322139 36.0512883 462.46894984 33.42091203 465.10658235 C32.1543736 466.37631408 30.88721875 467.64543124 29.61945176 468.91393633 C27.85212975 470.68341445 26.08813352 472.45613878 24.32509828 474.22988672 C23.79524827 474.75928354 23.26539827 475.28868036 22.7194922 475.83411951 C20.22935828 477.86167624 20.22935828 477.86167624 19.12441469 480.57583399 C46.18441469 480.57583399 73.24441469 480.57583399 101.12441469 480.57583399 C99.2791835 460.27829098 93.15285965 442.99727625 81.12441469 426.57583399 C80.59332094 425.80755274 80.06222719 425.03927149 79.51503969 424.24770899 C78.82668031 423.42013086 78.82668031 423.42013086 78.12441469 422.57583399 C75.23332691 422.57583399 74.21871947 424.23862813 72.25828004 426.1820199 Z " fill="#B3404A" transform="translate(17.875585313886404,7.424166012555361)"/>
<path d="M0 0 C0.66525948 -0.00581376 1.33051895 -0.01162753 2.01593781 -0.01761746 C4.25529344 -0.03226843 6.49356169 -0.01830973 8.73291016 -0.00457001 C10.35043907 -0.00917694 11.9679638 -0.01552846 13.58547974 -0.02347898 C18.03825017 -0.04022408 22.49067903 -0.03190255 26.94345093 -0.01953411 C31.74243521 -0.01050705 36.54135955 -0.02444167 41.34033203 -0.0354538 C50.74463538 -0.05326873 60.14881125 -0.04938581 69.55311966 -0.03780323 C77.19411518 -0.02878086 84.8350749 -0.02753972 92.47607422 -0.0318985 C93.56231897 -0.03251143 94.64856373 -0.03312436 95.76772499 -0.03375587 C97.97419994 -0.03503473 100.18067488 -0.03633158 102.38714981 -0.03764623 C123.0921028 -0.04906074 143.79698503 -0.03592467 164.50192642 -0.01444477 C182.27947728 0.00342699 200.05692368 0.00032313 217.83447266 -0.01811981 C238.46379314 -0.03951115 259.09305156 -0.04796203 279.72238159 -0.03567076 C281.92087808 -0.03439652 284.11937458 -0.03313904 286.31787109 -0.0318985 C287.94055373 -0.03097285 287.94055373 -0.03097285 289.59601784 -0.03002849 C297.23053091 -0.02657038 304.86500472 -0.03241386 312.49951172 -0.04181671 C321.79958405 -0.05301879 331.0995213 -0.05003443 340.39957809 -0.02869374 C345.14740182 -0.01815915 349.89500006 -0.01410235 354.64282227 -0.02729034 C358.9853561 -0.03917042 363.3274545 -0.03272466 367.66994858 -0.01138014 C369.24458254 -0.00689537 370.81925296 -0.00922212 372.39386368 -0.01888329 C374.52775375 -0.03097616 376.6601352 -0.01864756 378.79394531 0 C379.9810611 0.00064941 381.16817688 0.00129882 382.39126587 0.00196791 C385.39697266 0.50336456 385.39697266 0.50336456 387.77820158 2.12213564 C389.92355188 5.27796803 389.89825512 7.30032065 389.90033722 11.10639191 C389.90615098 11.77165138 389.91196475 12.43691086 389.91795468 13.12232971 C389.93260565 15.36168535 389.91864695 17.59995359 389.90490723 19.83930206 C389.90951416 21.45683098 389.91586568 23.07435571 389.9238162 24.69187164 C389.9405613 29.14464208 389.93223977 33.59707094 389.91987133 38.04984283 C389.91084427 42.84882711 389.92477889 47.64775146 389.93579102 52.44672394 C389.95360594 61.85102729 389.94972303 71.25520316 389.93814045 80.65951157 C389.92911808 88.30050709 389.92787694 95.94146681 389.93223572 103.58246613 C389.93284865 104.66871088 389.93346158 105.75495564 389.93409309 106.8741169 C389.93537195 109.08059185 389.9366688 111.28706679 389.93798345 113.49354172 C389.94939796 134.19849471 389.93626189 154.90337694 389.91478199 175.60831833 C389.89691023 193.38586919 389.90001409 211.16331559 389.91845703 228.94086456 C389.93984837 249.57018505 389.94829925 270.19944347 389.93600798 290.8287735 C389.93473374 293.02726999 389.93347626 295.22576649 389.93223572 297.424263 C389.93131006 299.04694564 389.93131006 299.04694564 389.93036571 300.70240974 C389.9269076 308.33692282 389.93275108 315.97139663 389.94215393 323.60590363 C389.95335601 332.90597596 389.95037165 342.2059132 389.92903095 351.50597 C389.91849637 356.25379372 389.91443956 361.00139196 389.92762756 365.74921417 C389.93950764 370.09174801 389.93306188 374.4338464 389.91171736 378.77634048 C389.90723259 380.35097445 389.90955934 381.92564487 389.91922051 383.50025558 C389.93131338 385.63414565 389.91898478 387.76652711 389.90033722 389.90033722 C389.89968781 391.087453 389.8990384 392.27456879 389.89836931 393.49765778 C389.28944397 397.14796342 388.34411483 398.32231526 385.39697266 400.50336456 C382.0781192 401.11182103 380.5322847 401.35949088 377.39697266 400.50336456 C375.47453186 399.14315005 375.47453186 399.14315005 373.56263345 397.38381654 C372.86680723 396.74720701 372.170981 396.11059748 371.45406913 395.45469675 C368.42786393 392.58408193 365.43998581 389.68396404 362.49639988 386.72863293 C361.84757509 386.08126158 361.19875031 385.43389024 360.53026417 384.76690158 C358.36892987 382.60920041 356.21115357 380.44797713 354.05335999 378.28673553 C352.48408025 376.71860866 350.91458269 375.15069974 349.34488672 373.58298951 C345.04144433 369.28371741 340.74112127 364.98133709 336.44131362 360.6784302 C332.27728495 356.51237097 328.11090915 352.34866122 323.94460943 348.18487337 C314.90150375 339.14702718 305.86125333 330.10632927 296.82222269 321.06440772 C288.91571441 313.15538313 281.00827642 305.24728956 273.09991264 297.34012032 C272.31281706 296.55313931 272.31281706 296.55313931 271.50982056 295.7502597 C269.3797936 293.62054407 267.2497631 291.49083198 265.11972679 289.3611257 C245.14829553 269.39275196 225.17977922 249.42146553 205.21256905 229.44887105 C187.46390657 211.69545897 169.71265494 193.94463963 151.95922852 176.19599152 C132.01393769 156.256051 112.0702578 136.31450154 92.12918848 116.37033921 C90.00523627 114.24606629 87.88128013 112.1217973 85.75732231 109.99752998 C85.23434771 109.4744763 84.7113731 108.95142262 84.17255078 108.41251882 C76.26520133 100.50403052 68.35661611 92.59677942 60.44743538 84.6901226 C51.46165531 75.7071957 42.47765181 66.7224963 33.49601758 57.73542406 C28.90986828 53.14663775 24.32290663 48.55867109 19.73379326 43.97284889 C15.53947183 39.78149018 11.34743489 35.5878611 7.15726953 31.39234761 C5.63482259 29.86877643 4.11151725 28.34606248 2.58730424 26.82425811 C0.52812319 24.76808365 -1.52800489 22.70890569 -3.58334255 20.6488905 C-4.18647568 20.04809853 -4.78960881 19.44730657 -5.4110187 18.82830879 C-9.69143116 14.52817816 -10.69256726 12.67239918 -11.02880859 6.57367706 C-9.81408739 0.66723453 -5.27379189 0.00288502 0 0 Z M18.39697266 16.50336456 C20.37697266 18.81336456 22.35697266 21.12336456 24.39697266 23.50336456 C25.5759937 24.99892897 26.74112736 26.5056522 27.88583374 28.0276413 C39.55708618 43.38648143 51.82605645 58.14309323 64.77197266 72.44086456 C65.28758507 73.01041713 65.80319748 73.57996969 66.33443451 74.16678143 C95.19192378 105.89377875 122.15523923 126.46726862 166.08529663 128.6717453 C174.44518803 129.013155 182.78584436 128.89619852 191.14718723 128.67933893 C193.38868172 128.62855241 195.62923753 128.60104528 197.87120819 128.58159256 C224.93775088 128.33032904 252.9447286 127.89907784 273.54174805 108.1112442 C279.76518604 101.69689673 285.30358291 94.8395471 290.39697266 87.50336456 C289.98809311 86.96180222 289.57921356 86.42023987 289.15794373 85.86226654 C288.6199263 85.14771805 288.08190887 84.43316956 287.52758789 83.69696808 C286.99495834 82.99040573 286.4623288 82.28384338 285.91355896 81.55587006 C271.21217084 61.65942249 265.46133762 40.88955433 261.39697266 16.50336456 C181.20697266 16.50336456 101.01697266 16.50336456 18.39697266 16.50336456 Z M302.39697266 99.50336456 C283.62206188 112.60387509 268.94940276 126.98924025 264.2514658 150.06274796 C261.75226811 164.58767355 261.11595312 179.18448631 260.93283224 193.89530945 C260.8968377 196.13676839 260.83667741 198.376355 260.76921463 200.61707306 C259.52583833 243.64931909 267.81991302 274.0271246 297.5093919 305.87820756 C304.96779162 313.7550981 312.81986602 321.19773969 320.83447266 328.50336456 C321.75393236 329.34179319 321.75393236 329.34179319 322.69196701 330.19715977 C346.44735944 355.15007883 346.44735944 355.15007883 373.39697266 371.50336456 C373.39697266 291.31336456 373.39697266 211.12336456 373.39697266 128.50336456 C366.13697266 127.18336456 358.87697266 125.86336456 351.39697266 124.50336456 C334.74088116 119.69657306 320.21884361 113.02798309 306.61962891 102.25336456 C304.52586959 100.48367482 304.52586959 100.48367482 302.39697266 99.50336456 Z " fill="#B3404A" transform="translate(114.60302734375,7.496635437011719)"/>
<path d="M0 0 C2.78053912 1.27084978 4.82876963 2.57909775 6.9866333 4.73939514 C7.54746613 5.29603348 8.10829895 5.85267181 8.68612671 6.42617798 C9.59027817 7.3387587 9.59027817 7.3387587 10.51269531 8.26977539 C11.15701508 8.91219681 11.80133484 9.55461823 12.46517944 10.21650696 C14.59107704 12.33870316 16.70969498 14.4680077 18.828125 16.59765625 C20.30177971 18.07250292 21.77580411 19.54698029 23.25018311 21.02110291 C26.33656399 24.1090474 29.41955639 27.20032229 32.5 30.29418945 C36.45858844 34.26980473 40.4237653 38.23876798 44.39125443 42.2054987 C47.43345127 45.24796671 50.47304068 48.29302811 53.51174164 51.33898735 C54.97365662 52.80409486 56.43618721 54.26858835 57.89933014 55.73246956 C59.93705018 57.77234488 61.97145056 59.81547075 64.00488281 61.85961914 C64.61574738 62.47003052 65.22661194 63.08044189 65.85598755 63.70935059 C70 67.88552396 70 67.88552396 70 69 C34.69 69 -0.62 69 -37 69 C-37 45.34610761 -25.68015278 24.50317961 -9.1875 7.9375 C-6.26349735 5.02687377 -3.4488349 2.29922327 0 0 Z " fill="#F3B1AF" transform="translate(406,419)"/>
<path d="M0 0 C4.68925903 4.01936488 9.15100655 8.00937732 13.48608398 12.37255859 C14.09182755 12.97815613 14.69757111 13.58375366 15.32167053 14.20770264 C17.29886146 16.18558341 19.27249876 18.16696914 21.24609375 20.1484375 C22.62592516 21.53013639 24.0059793 22.91161288 25.38624573 24.2928772 C29.0002185 27.91064913 32.61117673 31.53141519 36.22149658 35.15283203 C39.91341203 38.85501777 43.60819663 42.55433771 47.30273438 46.25390625 C54.53795303 53.49981631 61.76998741 60.74889555 69 68 C61.17535961 84.44386933 42.21427239 95.51429105 26 102 C24.58460937 102.57234375 24.58460937 102.57234375 23.140625 103.15625 C14.94679502 106.19100184 9.28062449 106.33709825 0 107 C0 71.69 0 36.38 0 0 Z " fill="#F3B1AF" transform="translate(24,36)"/>
<path d="M0 0 C0 34.32 0 68.64 0 104 C-4.16911121 100.42647611 -8.08368812 97.04072069 -11.92553711 93.18798828 C-12.82594223 92.28750763 -13.72634735 91.38702698 -14.65403748 90.45925903 C-15.61186102 89.49633134 -16.56962851 88.5333479 -17.52734375 87.5703125 C-18.52603017 86.56975714 -19.52494047 85.56942519 -20.52406311 84.56930542 C-23.13191964 81.9576612 -25.73675695 79.34302633 -28.34094238 76.72772217 C-31.00735236 74.05101677 -33.67665464 71.37719898 -36.34570312 68.703125 C-41.56661101 63.47154602 -46.78432751 58.23679904 -52 53 C-50.44068059 49.26453869 -48.13960872 46.89198481 -45.29077148 44.04785156 C-44.81416077 43.5693425 -44.33755005 43.09083344 -43.84649658 42.5978241 C-42.27620045 41.02383504 -40.69884178 39.45714147 -39.12109375 37.890625 C-38.02739113 36.79811473 -36.93405817 35.70523426 -35.84107971 34.61199951 C-33.55346536 32.32594726 -31.2625356 30.04328898 -28.96899414 27.76318359 C-26.02245037 24.83367953 -23.08258287 21.8975851 -20.14492702 18.9591713 C-17.88995131 16.70446676 -15.63238467 14.45237208 -13.37391853 12.20116425 C-12.28839966 11.11883662 -11.2034934 10.03589424 -10.11919975 8.95233917 C-8.60858051 7.44387583 -7.09472265 5.93874436 -5.57983398 4.43457031 C-4.71760727 3.5761554 -3.85538055 2.71774048 -2.96702576 1.83331299 C-1 0 -1 0 0 0 Z " fill="#F3B1AF" transform="translate(368,156)"/>
<path d="M0 0 C34.32 0 68.64 0 104 0 C100.42647611 4.16911121 97.04072069 8.08368812 93.18798828 11.92553711 C92.28750763 12.82594223 91.38702698 13.72634735 90.45925903 14.65403748 C89.49633134 15.61186102 88.5333479 16.56962851 87.5703125 17.52734375 C86.56975714 18.52603017 85.56942519 19.52494047 84.56930542 20.52406311 C81.9576612 23.13191964 79.34302633 25.73675695 76.72772217 28.34094238 C74.05101677 31.00735236 71.37719898 33.67665464 68.703125 36.34570312 C63.47154602 41.56661101 58.23679904 46.78432751 53 52 C49.26453869 50.44068059 46.89198481 48.13960872 44.04785156 45.29077148 C43.5693425 44.81416077 43.09083344 44.33755005 42.5978241 43.84649658 C41.02383504 42.27620045 39.45714147 40.69884178 37.890625 39.12109375 C36.79811473 38.02739113 35.70523426 36.93405817 34.61199951 35.84107971 C32.32594726 33.55346536 30.04328898 31.2625356 27.76318359 28.96899414 C24.83367953 26.02245037 21.8975851 23.08258287 18.9591713 20.14492702 C16.70446676 17.88995131 14.45237208 15.63238467 12.20116425 13.37391853 C11.11883662 12.28839966 10.03589424 11.2034934 8.95233917 10.11919975 C7.44387583 8.60858051 5.93874436 7.09472265 4.43457031 5.57983398 C3.5761554 4.71760727 2.71774048 3.85538055 1.83331299 2.96702576 C0 1 0 1 0 0 Z " fill="#F3B1AF" transform="translate(252,144)"/>
<path d="M0 0 C0 27.39 0 54.78 0 83 C-22.50258563 83 -41.51746854 73.66090142 -59 60 C-57.39922197 56.03040815 -54.63687748 53.36133843 -51.64819336 50.40527344 C-51.10330765 49.85848938 -50.55842194 49.31170532 -49.99702454 48.74835205 C-48.19947659 46.94710707 -46.39484381 45.15314984 -44.58984375 43.359375 C-43.33919947 42.10992288 -42.08892468 40.86010082 -40.83900452 39.60992432 C-38.22184272 36.99432535 -35.60135823 34.3821177 -32.97827148 31.77246094 C-29.60799307 28.41921598 -26.24437915 25.05938159 -22.88298702 21.69723129 C-20.30374985 19.1182653 -17.72192057 16.54190798 -15.13919258 13.96643829 C-13.89737245 12.72781003 -12.6561656 11.48856659 -11.41557121 10.24871063 C-9.68702338 8.5223184 -7.95523114 6.79925211 -6.22241211 5.07714844 C-5.70550812 4.55979126 -5.18860413 4.04243408 -4.65603638 3.50939941 C-1.11447721 0 -1.11447721 0 0 0 Z " fill="#F3B1AF" transform="translate(488,36)"/>
<path d="M0 0 C27.39 0 54.78 0 83 0 C79.23061623 4.3976144 75.61557541 8.50787721 71.54541016 12.56811523 C71.03734833 13.07632309 70.5292865 13.58453094 70.00582886 14.10813904 C68.35260332 15.7606768 66.69588192 17.4096599 65.0390625 19.05859375 C63.88156574 20.21422229 62.72429189 21.37007414 61.56723022 22.52613831 C58.54129782 25.54827738 55.51237303 28.56739953 52.48278809 31.58587646 C49.38382705 34.67455447 46.28774287 37.76611335 43.19140625 40.85742188 C37.13039606 46.90775098 31.06621753 52.95489193 25 59 C17.17188154 56.39062718 12.55682287 44.26433251 8.9296875 37.16015625 C3.14099498 25.18085899 0 13.29188168 0 0 Z " fill="#F3B1AF" transform="translate(393,24)"/>
</svg>
