<?xml version="1.0" encoding="UTF-8"?>
<svg version="1.1" xmlns="http://www.w3.org/2000/svg" width="512" height="512">
<path d="M0 0 C8.80288754 6.34043826 15.4186507 14.72648904 17.58203125 25.4921875 C18.82891398 37.0633684 18.19241959 48.16045483 11.26953125 57.9296875 C9.38169154 60.23020223 9.38169154 60.23020223 9.7109375 62.26953125 C10.93737862 65.39888102 12.84627664 67.93689658 14.83203125 70.6171875 C15.27313232 71.22336914 15.7142334 71.82955078 16.16870117 72.45410156 C17.12947246 73.77418434 18.09271197 75.09247341 19.05810547 76.40917969 C21.14367579 79.25988235 23.20754812 82.12601549 25.27246094 84.99169922 C26.92169211 87.27987095 28.57371261 89.5660036 30.2265625 91.8515625 C34.05331154 97.14347322 37.87654225 102.43792142 41.69970703 107.73242188 C44.44454269 111.53334525 47.19021252 115.33366082 49.9375 119.1328125 C50.48865479 119.8973877 51.03980957 120.66196289 51.60766602 121.44970703 C52.70777385 122.96726434 53.81624984 124.47879353 54.93334961 125.98388672 C57.50652713 129.47277065 59.87487243 132.90691509 61.91796875 136.734375 C64.13758536 140.71885275 65.98941414 143.59239949 69.58203125 146.4921875 C74.62979802 147.67440714 79.72186986 147.13128859 84.84375 146.7421875 C92.31380707 146.18050708 97.58928689 148.74066327 103.39453125 153.2421875 C109.45226515 158.89988237 113.17310493 165.94644842 113.91796875 174.2265625 C114.16356163 185.14195167 112.8060377 193.78215891 105.109375 202.0859375 C103.11162823 203.92529514 101.00668039 205.27986293 98.58203125 206.4921875 C99.02585288 211.15231457 99.55116661 215.57963779 100.70703125 220.1171875 C101.64544284 224.18363771 101.72577099 227.4074027 100.58203125 231.4921875 C98.77623755 233.73137169 97.49849297 234.34163937 94.6796875 234.8046875 C91.19114076 235.0125711 89.39064316 235.07768242 86.47265625 232.96484375 C83.99345573 229.72241827 83.19603606 226.40145515 82.33203125 222.4921875 C82.07292969 221.42484375 82.07292969 221.42484375 81.80859375 220.3359375 C81.01018995 216.93955309 80.58203125 213.99946484 80.58203125 210.4921875 C79.63328125 210.5746875 78.68453125 210.6571875 77.70703125 210.7421875 C70.84439375 210.71440354 64.71072347 207.82318265 59.83203125 203.1171875 C59.3421875 202.57320312 58.85234375 202.02921875 58.34765625 201.46875 C56.5106914 200.18410911 56.5106914 200.18410911 53.96728516 201.21240234 C50.12241058 202.66594572 46.39242634 204.29029942 42.65234375 205.9921875 C41.88127289 206.34016891 41.11020203 206.68815033 40.31576538 207.04667664 C37.77830833 208.19251863 35.24269985 209.34239397 32.70703125 210.4921875 C30.92917975 211.29564593 29.15118261 212.09878215 27.37304688 212.90161133 C23.65989285 214.57845337 19.94737721 216.25669674 16.23535156 217.93603516 C8.04149264 221.64210833 -0.15799302 225.33567467 -8.35845947 229.02709961 C-10.84469956 230.14669321 -13.33035057 231.26758584 -15.81591797 232.38867188 C-25.65485794 236.82265162 -35.52111251 241.1890222 -45.41796875 245.4921875 C-45.51863647 246.91591675 -45.51863647 246.91591675 -45.62133789 248.3684082 C-46.35546875 258.75111607 -46.35546875 258.75111607 -47.41796875 263.4921875 C-46.43699219 264.21921875 -45.45601562 264.94625 -44.4453125 265.6953125 C-36.80472054 271.37969142 -29.26263457 277.15729149 -21.84863281 283.13427734 C-17.45384306 286.67433239 -13.01309495 290.14227626 -8.53125 293.57177734 C-3.91339265 297.10610732 0.6808859 300.67002354 5.26953125 304.2421875 C6.03112549 304.83499512 6.79271973 305.42780273 7.57739258 306.03857422 C9.1354893 307.25153431 10.69351288 308.46458836 12.25146484 309.67773438 C16.02720391 312.61732088 19.8046866 315.55466465 23.58203125 318.4921875 C25.08204002 319.65884289 26.58204001 320.82550957 28.08203125 321.9921875 C28.82453125 322.5696875 29.56703125 323.1471875 30.33203125 323.7421875 C44.58203125 334.82552083 58.83203125 345.90885417 73.08203125 356.9921875 C73.82557861 357.57049316 74.56912598 358.14879883 75.33520508 358.74462891 C76.82466076 359.90311242 78.31408173 361.06164055 79.8034668 362.22021484 C83.71450119 365.26246385 87.62626062 368.3037745 91.5390625 371.34375 C92.35181641 371.97539062 93.16457031 372.60703125 94.00195312 373.2578125 C95.55381297 374.4638293 97.10588357 375.66957498 98.65820312 376.875 C99.36138672 377.4215625 100.06457031 377.968125 100.7890625 378.53125 C101.77543701 379.29526123 101.77543701 379.29526123 102.78173828 380.07470703 C104.35958639 381.31704309 105.90181528 382.60434477 107.4375 383.8984375 C109.47211445 385.76327166 109.47211445 385.76327166 112.08203125 385.3671875 C114.61484275 384.48070348 117.09370371 383.49581294 119.58203125 382.4921875 C115.45356459 363.53129267 111.17641301 344.61052149 106.68412399 325.73232651 C105.95066889 322.64983395 105.21895478 319.56693279 104.48770142 316.48391724 C101.48793715 303.84131025 101.48793715 303.84131025 98.46655273 291.20385742 C97.2080816 285.95832054 95.96181481 280.71001545 94.72364998 275.45965004 C94.25569753 273.48546679 93.78325475 271.51234194 93.3060894 269.54036522 C92.64615835 266.81100642 92.00188204 264.07838658 91.36108398 261.34448242 C91.16434082 260.54723755 90.96759766 259.74999268 90.76489258 258.92858887 C89.66619041 254.15201549 89.4564032 250.36380298 90.58203125 245.4921875 C92.38782495 243.25300331 93.66556953 242.64273563 96.484375 242.1796875 C101.80209035 241.86280316 101.80209035 241.86280316 104.58728027 244.11035156 C107.05594591 247.05806613 107.63068831 249.35780049 108.49804688 253.09765625 C108.65514067 253.75695885 108.81223446 254.41626144 108.97408867 255.09554291 C109.49264027 257.28726988 109.99041193 259.48317809 110.48828125 261.6796875 C110.85256104 263.23788218 111.21811804 264.79577875 111.58486938 266.35339355 C112.56485707 270.53163733 113.52699585 274.71380289 114.48557281 278.89700317 C115.47901255 283.21944892 116.48811874 287.53823297 117.49560547 291.85742188 C119.1098956 298.78700555 120.7144768 305.7187666 122.31152344 312.65234375 C124.03764314 320.14555997 125.77938169 327.63496233 127.53387451 335.12158203 C128.66924002 339.9665065 129.80033138 344.81241985 130.92993164 349.65869141 C131.44622038 351.87339654 131.96330476 354.08791635 132.48120117 356.30224609 C133.1886856 359.33326564 133.89026138 362.36558582 134.58984375 365.3984375 C134.79517731 366.27399292 135.00051086 367.14954834 135.21206665 368.05163574 C135.39490204 368.84992798 135.57773743 369.64822021 135.76611328 370.47070312 C135.92500031 371.15636353 136.08388733 371.84202393 136.24758911 372.54846191 C136.58203125 374.4921875 136.58203125 374.4921875 136.58203125 378.4921875 C137.17628906 378.44578125 137.77054687 378.399375 138.3828125 378.3515625 C148.51908634 377.91016955 156.76566358 380.98959954 164.515625 387.51953125 C173.03366175 395.65111643 177.58452653 404.30021243 178.05273438 416.12744141 C178.20777426 428.64174426 175.39054078 438.26505573 166.58203125 447.4921875 C157.35489948 456.30069703 147.73158801 459.11793051 135.21728516 458.96289062 C123.39005618 458.49468278 114.74096018 453.943818 106.609375 445.42578125 C100.26131594 437.89167294 97.46617784 430.29727185 97.58203125 420.4921875 C95.68342677 420.22863008 95.68342677 420.22863008 93.74646664 419.95974827 C80.80340142 418.14670289 67.90671535 416.12084444 55.01586914 413.97045898 C52.95359902 413.62824837 50.89129637 413.28623371 48.82896423 412.94439697 C43.30066686 412.02737649 37.7728821 411.10730303 32.24523854 410.18635058 C28.78525548 409.61004459 25.32515753 409.03443348 21.86501884 408.45906258 C9.77817561 406.44919195 -2.3082537 404.43685368 -14.39428711 402.42211914 C-25.64270721 400.5470807 -36.89202585 398.67750282 -48.14176744 396.81041092 C-57.83195512 395.20191206 -67.52151569 393.58967331 -77.21059424 391.97450691 C-82.9847951 391.01201272 -88.75923689 390.05102627 -94.53431511 389.09380913 C-99.94999324 388.19602919 -105.36487629 387.29360077 -110.77918053 386.38757324 C-112.76467773 386.05613364 -114.75045316 385.72635583 -116.73652267 385.39836311 C-119.44690227 384.95048676 -122.15621351 384.49662314 -124.86534119 384.04124451 C-125.65063877 383.91293336 -126.43593634 383.78462221 -127.24503082 383.65242285 C-137.46990032 381.91609345 -137.46990032 381.91609345 -141.26171875 379.14453125 C-143.1828872 376.39907768 -142.95726872 373.91507622 -142.80859375 370.66015625 C-142.41796875 368.4921875 -142.41796875 368.4921875 -140.66796875 365.8671875 C-130.5639753 361.59242104 -114.3084526 367.21487079 -103.72436523 369.00219727 C-101.5403697 369.36729857 -99.35630088 369.73196164 -97.17216492 370.09622192 C-92.49009835 370.87802702 -87.808558 371.6628865 -83.12740898 372.4501667 C-75.72916138 373.69437784 -68.32975946 374.93162546 -60.93019104 376.16795349 C-50.56258329 377.90092222 -40.19549016 379.63694174 -29.82885742 381.37573242 C-29.17251389 381.48581967 -28.51617036 381.59590691 -27.83993763 381.70933013 C-27.18274003 381.81956083 -26.52554242 381.92979153 -25.84842974 382.04336256 C-16.51037241 383.60961008 -7.17215331 385.17488851 2.16625977 386.73901367 C3.15365596 386.90439784 3.15365596 386.90439784 4.16099954 387.0731231 C15.12788875 388.90994222 26.0951073 390.74479057 37.06249374 392.57863849 C44.42311101 393.80961757 51.78326396 395.04332733 59.14305794 396.27921879 C63.70882957 397.04548865 68.27492665 397.80980523 72.84110832 398.57362747 C74.96374119 398.92913975 77.08623213 399.28550054 79.20857239 399.64275551 C82.09669416 400.1288108 84.98529614 400.61190365 87.8740387 401.09425354 C88.72090526 401.23753651 89.56777182 401.38081947 90.440301 401.52844435 C93.52309334 402.0407301 96.45090176 402.4921875 99.58203125 402.4921875 C98.2745847 399.49600556 97.06450411 397.80236643 94.4140625 395.8984375 C93.77573486 395.43163574 93.13740723 394.96483398 92.47973633 394.48388672 C91.44755981 393.74549561 91.44755981 393.74549561 90.39453125 392.9921875 C88.93466799 391.9239627 87.47637099 390.85359459 86.01953125 389.78125 C85.27832031 389.23629883 84.53710938 388.69134766 83.7734375 388.12988281 C80.41642763 385.62110137 77.15291606 383.00208059 73.89453125 380.3671875 C68.87419459 376.31836087 63.81756044 372.33213416 58.6953125 368.41259766 C54.07745515 364.87826768 49.4831766 361.31435146 44.89453125 357.7421875 C44.13293701 357.14937988 43.37134277 356.55657227 42.58666992 355.94580078 C41.0285732 354.73284069 39.47054962 353.51978664 37.91259766 352.30664062 C34.13685859 349.36705412 30.3593759 346.42971035 26.58203125 343.4921875 C25.08202248 342.32553211 23.58202249 341.15886543 22.08203125 339.9921875 C21.33953125 339.4146875 20.59703125 338.8371875 19.83203125 338.2421875 C-22.91796875 304.9921875 -22.91796875 304.9921875 -25.17114258 303.23950195 C-26.66028236 302.08142596 -28.1496997 300.92370678 -29.6394043 299.76635742 C-33.55800204 296.72123122 -37.47055247 293.66872348 -41.375 290.60546875 C-42.18775391 289.96931641 -43.00050781 289.33316406 -43.83789062 288.67773438 C-45.39176694 287.46127121 -46.94395152 286.24264283 -48.49414062 285.02148438 C-53.67183502 280.79584659 -53.67183502 280.79584659 -59.41796875 277.4921875 C-61.61238188 277.94569458 -61.61238188 277.94569458 -63.54296875 279.2421875 C-71.1730664 283.69555189 -80.98537427 283.87428332 -89.51953125 281.703125 C-93.75794928 280.02568463 -97.51933894 277.84165561 -101.41796875 275.4921875 C-114.07631124 283.15184198 -126.68615872 290.88173311 -139.22070312 298.74243164 C-146.5964243 303.36414603 -154.00028527 307.93816735 -161.41796875 312.4921875 C-170.12280556 317.83955646 -178.81329345 323.2089563 -187.48046875 328.6171875 C-188.44919922 329.22046875 -189.41792969 329.82375 -190.41601562 330.4453125 C-196.15101465 334.03018925 -201.81459023 337.70479065 -207.41796875 341.4921875 C-207.17240234 342.36617188 -207.17240234 342.36617188 -206.921875 343.2578125 C-206.22461135 346.34955518 -206.35725459 349.33505143 -206.41796875 352.4921875 C-205.82894775 352.56735596 -205.23992676 352.64252441 -204.63305664 352.7199707 C-201.9142403 353.07230629 -199.19744132 353.43841554 -196.48046875 353.8046875 C-195.55427734 353.92263672 -194.62808594 354.04058594 -193.67382812 354.16210938 C-178.69883765 356.2113186 -178.69883765 356.2113186 -174.41796875 360.4921875 C-173.72360259 364.67453253 -173.76835485 368.33418011 -175.85546875 372.0546875 C-182.20619052 375.61728752 -191.57159579 373.05952904 -198.48046875 371.9921875 C-199.44146484 371.84910156 -200.40246094 371.70601563 -201.39257812 371.55859375 C-203.73531425 371.20893164 -206.07698652 370.8533731 -208.41796875 370.4921875 C-208.83046875 371.20503906 -209.24296875 371.91789062 -209.66796875 372.65234375 C-215.87974893 382.95447025 -223.4249385 390.62582996 -235.31518555 394.03637695 C-246.62476977 396.48790299 -259.04282656 395.09122608 -268.8359375 388.984375 C-277.63882504 382.64393674 -284.2545882 374.25788596 -286.41796875 363.4921875 C-287.75601441 351.07500666 -286.69323249 340.10328041 -279.23046875 329.7421875 C-272.32395459 321.54528428 -263.68511415 315.22199339 -252.71875 314.25390625 C-250.61701155 314.24400795 -248.51522632 314.35466241 -246.41796875 314.4921875 C-246.30250198 313.41493408 -246.18703522 312.33768066 -246.06806946 311.2277832 C-245.36854375 305.66039548 -244.18437211 300.20750042 -243.01635742 294.72265625 C-242.7721405 293.5629834 -242.52792358 292.40331055 -242.27630615 291.20849609 C-241.60649872 288.03124239 -240.93376035 284.85462673 -240.25966811 281.67827988 C-239.54095696 278.28836517 -238.82592768 274.89767375 -238.11042786 271.50708008 C-236.89782626 265.7633707 -235.68279001 260.02018087 -234.46606445 254.27734375 C-232.79622739 246.39582717 -231.13091134 238.51336092 -229.46649909 230.63069725 C-219.9908525 185.76106037 -219.9908525 185.76106037 -215.29155433 163.9489994 C-214.85952716 161.94360668 -214.42782649 159.93814393 -213.99620914 157.93266296 C-212.6559498 151.70704585 -211.3124719 145.4821579 -209.9629364 139.25854492 C-209.48991335 137.06561561 -209.01699155 134.87266446 -208.54418945 132.6796875 C-208.21808528 131.18487602 -208.21808528 131.18487602 -207.88539314 129.65986633 C-207.69036139 128.75246201 -207.49532963 127.84505768 -207.29438782 126.91015625 C-207.12400151 126.12406982 -206.95361521 125.3379834 -206.77806568 124.52807617 C-206.33088319 122.34441137 -206.33088319 122.34441137 -206.41796875 119.4921875 C-208.22280529 117.92741637 -208.22280529 117.92741637 -210.54296875 116.4296875 C-216.43051404 112.06510345 -221.18298008 105.8888401 -222.41796875 98.4921875 C-223.1710097 87.30767762 -222.85151559 77.86520641 -215.66796875 68.6796875 C-210.01027388 62.6219536 -202.96370783 58.90111382 -194.68359375 58.15625 C-183.95411601 57.91484007 -175.11056769 59.16667057 -166.94921875 66.7890625 C-161.59370913 72.74570075 -158.70704452 79.23485499 -157.87109375 87.18359375 C-157.78504883 87.99127197 -157.69900391 88.7989502 -157.61035156 89.63110352 C-157.54686523 90.24526123 -157.48337891 90.85941895 -157.41796875 91.4921875 C-149.58597233 94.06691003 -141.75349724 96.64016914 -133.92041683 99.21159172 C-130.28272928 100.40581221 -126.64520499 101.60052495 -123.00805664 102.79638672 C-119.49416212 103.95170324 -115.97983512 105.10569524 -112.46521187 106.25879288 C-111.12832912 106.69765783 -109.79159953 107.13698964 -108.45503044 107.57680893 C-106.57451901 108.19553034 -104.69339767 108.81239707 -102.81225586 109.42919922 C-101.21008461 109.95548416 -101.21008461 109.95548416 -99.57554626 110.49240112 C-96.20530445 111.55952357 -92.82116274 112.53604048 -89.41796875 113.4921875 C-84.28010402 107.0395696 -79.47655581 100.40503671 -74.79296875 93.6171875 C-74.10654297 92.6264624 -73.42011719 91.6357373 -72.71289062 90.61499023 C-66.24329627 81.26678482 -59.81821916 71.8879813 -53.41796875 62.4921875 C-53.90007812 61.70714844 -54.3821875 60.92210938 -54.87890625 60.11328125 C-60.67691168 50.46965998 -64.18892219 41.97336868 -62.41796875 30.4921875 C-60.56640625 28.11328125 -60.56640625 28.11328125 -58.41796875 26.4921875 C-55.66796875 26.2421875 -55.66796875 26.2421875 -53.41796875 26.4921875 C-52.73303502 23.63440717 -52.73303502 23.63440717 -52.41796875 20.4921875 C-53.40796875 19.0071875 -53.40796875 19.0071875 -54.41796875 17.4921875 C-54.93315448 13.62829456 -55.27615384 11.02871741 -53.35546875 7.58984375 C-49.76970418 3.13686981 -45.48654711 0.0689508 -40.41796875 -2.5078125 C-39.79792969 -2.82878906 -39.17789063 -3.14976563 -38.5390625 -3.48046875 C-26.58709798 -8.5091818 -10.77331567 -6.71809345 0 0 Z M-17.16796875 73.4921875 C-17.86535156 73.58757812 -18.56273437 73.68296875 -19.28125 73.78125 C-20.99381742 74.01584828 -22.70593918 74.25369582 -24.41796875 74.4921875 C-26.44173586 82.12464616 -28.45257244 89.76042534 -30.4543457 97.39868164 C-31.13629076 99.99836843 -31.82237197 102.59691125 -32.51196289 105.19458008 C-33.50016644 108.92328764 -34.4776921 112.65465297 -35.453125 116.38671875 C-35.7645192 117.55241898 -36.07591339 118.7181192 -36.39674377 119.91914368 C-36.81729286 121.5404847 -36.81729286 121.5404847 -37.24633789 123.19458008 C-37.497267 124.14722244 -37.74819611 125.09986481 -38.00672913 126.08137512 C-38.63548919 128.6250402 -38.63548919 128.6250402 -37.41796875 131.4921875 C-34.69499766 132.63573973 -34.69499766 132.63573973 -31.48046875 133.4921875 C-25.63691819 135.16376335 -25.63691819 135.16376335 -23.41796875 138.4921875 C-22.87627834 141.98151794 -22.82484089 145.30593179 -24.41796875 148.4921875 C-29.07917443 150.82279034 -34.33140472 149.6000688 -39.19140625 148.47265625 C-39.98724121 148.28985107 -40.78307617 148.1070459 -41.60302734 147.91870117 C-42.50142334 147.7075769 -42.50142334 147.7075769 -43.41796875 147.4921875 C-45.99204 157.06427218 -48.54074298 166.64271346 -51.05709457 176.2301445 C-52.22629433 180.68160387 -53.40417457 185.13038245 -54.60205078 189.57421875 C-55.75732889 193.86129968 -56.88959328 198.15385424 -58.00601959 202.45121002 C-58.43641856 204.09126811 -58.87512701 205.72916832 -59.32216644 207.36476898 C-59.94610104 209.65309366 -60.54027246 211.94725201 -61.12792969 214.24511719 C-61.31997482 214.92269073 -61.51201996 215.60026428 -61.70988464 216.29837036 C-62.28510301 218.40998881 -62.28510301 218.40998881 -62.41796875 221.4921875 C-60.74815632 223.87354789 -60.74815632 223.87354789 -58.41796875 225.4921875 C-57.63421875 226.2759375 -56.85046875 227.0596875 -56.04296875 227.8671875 C-55.17671875 228.4034375 -54.31046875 228.9396875 -53.41796875 229.4921875 C-48.56121902 228.25511602 -44.03865697 226.06279156 -39.48828125 223.9921875 C-38.71721039 223.64420609 -37.94613953 223.29622467 -37.15170288 222.93769836 C-34.61424583 221.79185637 -32.07863735 220.64198103 -29.54296875 219.4921875 C-27.76511725 218.68872907 -25.98712011 217.88559285 -24.20898438 217.08276367 C-20.49583035 215.40592163 -16.78331471 213.72767826 -13.07128906 212.04833984 C-4.87743014 208.34226667 3.32205552 204.64870033 11.52252197 200.95727539 C14.00876206 199.83768179 16.49441307 198.71678916 18.97998047 197.59570312 C20.54516098 196.89043319 22.110426 196.18535076 23.67578125 195.48046875 C24.42135284 195.14467804 25.16692444 194.80888733 25.93508911 194.46292114 C31.85023447 191.80572599 37.78895739 189.20416474 43.74743652 186.64558411 C46.89235266 185.43169858 46.89235266 185.43169858 49.58203125 183.4921875 C49.62283908 181.49260386 49.62457481 179.49173496 49.58203125 177.4921875 C42.49672615 174.54105942 35.34066419 172.02896682 28.02734375 169.70703125 C25.84497597 169.0047938 23.66268654 168.3023128 21.48046875 167.59960938 C18.07779725 166.50821902 14.67438285 165.41928778 11.26953125 164.3347168 C7.95742284 163.27808015 4.64848622 162.21196274 1.33984375 161.14453125 C0.32004425 160.82258286 -0.69975525 160.50063446 -1.75045776 160.16893005 C-2.69889557 159.86173538 -3.64733337 159.55454071 -4.62451172 159.23803711 C-5.45594696 158.97252548 -6.2873822 158.70701385 -7.14401245 158.43345642 C-9.60811039 157.41348132 -11.41804828 156.25219989 -13.41796875 154.4921875 C-14.17098973 151.43580823 -13.96330589 148.58051785 -13.41796875 145.4921875 C-11.98046875 143.3671875 -11.98046875 143.3671875 -9.41796875 142.4921875 C-1.846135 142.88620232 4.7644253 144.95542742 11.9140625 147.37890625 C14.28179773 148.15981851 16.64963942 148.94040808 19.01757812 149.72070312 C22.7237253 150.95345407 26.42816985 152.19098829 30.13061523 153.43481445 C33.72100138 154.63729645 37.31699534 155.82158795 40.9140625 157.00390625 C42.02449417 157.38294601 43.13492584 157.76198578 44.27900696 158.1525116 C45.31075546 158.48978775 46.34250397 158.8270639 47.40551758 159.17456055 C48.31102859 159.47798874 49.21653961 159.78141693 50.14949036 160.09403992 C53.02679204 160.56498399 54.17165757 160.04835927 56.58203125 158.4921875 C52.52273744 152.27881339 48.26625607 146.25505545 43.83203125 140.3046875 C39.68554642 134.70913595 35.55410874 129.10658521 31.51953125 123.4296875 C26.14925133 115.87368706 20.71834474 108.36214368 15.28613281 100.85058594 C13.54684028 98.44348481 11.81018089 96.03450387 10.07421875 93.625 C9.49969971 92.82803711 8.92518066 92.03107422 8.33325195 91.20996094 C7.24527787 89.70060727 6.15783415 88.19087109 5.07104492 86.68066406 C4.07557513 85.30037331 3.07562723 83.92329895 2.07080078 82.54980469 C1.03044762 81.11194039 0.01221746 79.65792485 -0.98876953 78.19238281 C-1.76003174 77.09168457 -1.76003174 77.09168457 -2.546875 75.96875 C-3.23052124 74.96835693 -3.23052124 74.96835693 -3.92797852 73.94775391 C-7.11701706 70.83239297 -13.01986071 72.91192286 -17.16796875 73.4921875 Z M-44.41796875 80.4921875 C-47.81007672 85.28835482 -51.19739814 90.08785935 -54.58154297 94.88964844 C-56.483438 97.58496897 -58.39020191 100.27680795 -60.296875 102.96875 C-61.5666006 104.76809204 -62.83613573 106.5675685 -64.10546875 108.3671875 C-64.71729004 109.22860352 -65.32911133 110.09001953 -65.95947266 110.97753906 C-66.52714355 111.78416992 -67.09481445 112.59080078 -67.6796875 113.421875 C-68.18459717 114.13585449 -68.68950684 114.84983398 -69.2097168 115.58544922 C-70.58110288 117.58046284 -70.58110288 117.58046284 -71.41796875 120.4921875 C-65.80796875 122.1421875 -60.19796875 123.7921875 -54.41796875 125.4921875 C-52.82243603 119.5684732 -51.23782085 113.6419884 -49.66333008 107.71264648 C-49.12597253 105.69524157 -48.58562037 103.67863185 -48.04223633 101.6628418 C-47.262484 98.76814479 -46.49348452 95.87077512 -45.7265625 92.97265625 C-45.48078964 92.06944138 -45.23501678 91.1662265 -44.98179626 90.23564148 C-44.76149246 89.39499649 -44.54118866 88.5543515 -44.31420898 87.68823242 C-44.11657455 86.94876877 -43.91894012 86.20930511 -43.71531677 85.44743347 C-43.23449284 83.28383816 -43.23449284 83.28383816 -44.41796875 80.4921875 Z M-163.41796875 108.4921875 C-164.40796875 109.9771875 -164.40796875 109.9771875 -165.41796875 111.4921875 C-157.77611938 122.65864495 -150.0483409 133.76260084 -142.27783203 144.83984375 C-139.02982163 149.47181867 -135.78670126 154.10721633 -132.54296875 158.7421875 C-131.35809381 160.43491046 -130.17319998 162.12762019 -128.98828125 163.8203125 C-128.13151042 165.04427083 -127.27473958 166.26822917 -126.41796875 167.4921875 C-118.92428609 158.25983137 -112.05923158 148.51468266 -105.29296875 138.7421875 C-104.81980225 138.06309326 -104.34663574 137.38399902 -103.85913086 136.68432617 C-101.99716805 133.9749866 -100.46315942 131.62775952 -99.41796875 128.4921875 C-106.60186693 126.1200375 -113.78797096 123.75466275 -120.97558594 121.39379883 C-123.41619304 120.59129029 -125.85630691 119.78728001 -128.29589844 118.98168945 C-131.81964927 117.81839068 -135.3451883 116.66065565 -138.87109375 115.50390625 C-139.94659485 115.14753586 -141.02209595 114.79116547 -142.13018799 114.42399597 C-149.15910351 112.12561014 -156.22059514 110.19015094 -163.41796875 108.4921875 Z M-188.41796875 122.4921875 C-192.42346987 137.48297421 -195.49637177 152.68645571 -198.68382788 167.86633778 C-199.49288937 171.71602957 -200.30549272 175.56497371 -201.1177063 179.41400146 C-202.65691642 186.7107224 -204.19317734 194.00806075 -205.7282716 201.30564857 C-207.96253578 211.92631725 -210.20132715 222.54603169 -212.44001961 233.16576767 C-212.7756178 234.75778917 -213.1112139 236.34981111 -213.44680786 237.9418335 C-213.61125432 238.72192772 -213.77570078 239.50202194 -213.94513047 240.30575538 C-214.90118441 244.8415222 -215.8564604 249.37745184 -216.81088603 253.91356158 C-217.26260845 256.06014872 -217.71465901 258.20666656 -218.16674995 260.35317612 C-218.74579791 263.1027088 -219.32336368 265.85254685 -219.8999157 268.60260391 C-221.30451928 275.29096986 -222.73856648 281.97126555 -224.22271729 288.64245605 C-224.51124833 289.9494875 -224.79957803 291.25656341 -225.08769417 292.56368637 C-225.62736632 295.0033952 -226.17420875 297.44153296 -226.72942924 299.8777504 C-226.96705042 300.95592907 -227.20467159 302.03410774 -227.44949341 303.1449585 C-227.76749499 304.55581537 -227.76749499 304.55581537 -228.09192085 305.99517441 C-228.42067143 308.51288573 -228.22085976 310.10613308 -227.41796875 312.4921875 C-221.38118899 304.36530412 -215.458452 296.18049078 -209.75 287.81933594 C-206.07221192 282.43400339 -202.34899113 277.08202189 -198.60546875 271.7421875 C-198.01660889 270.90212158 -197.42774902 270.06205566 -196.82104492 269.1965332 C-195.61964292 267.48311171 -194.41806325 265.76981479 -193.21630859 264.05664062 C-190.28071891 259.87045625 -187.34953266 255.68119158 -184.41796875 251.4921875 C-183.25132394 249.82550553 -182.08465725 248.15883888 -180.91796875 246.4921875 C-180.34046875 245.6671875 -179.76296875 244.8421875 -179.16796875 243.9921875 C-177.41796875 241.4921875 -175.66796875 238.9921875 -173.91796875 236.4921875 C-173.34030762 235.6669458 -172.76264648 234.8417041 -172.16748047 233.99145508 C-171.00248511 232.32719922 -169.83744615 230.66297389 -168.67236328 228.9987793 C-165.72976464 224.79547827 -162.78795971 220.59162569 -159.84765625 216.38671875 C-159.25863525 215.5450415 -158.66961426 214.70336426 -158.06274414 213.83618164 C-156.89337426 212.16351006 -155.72585809 210.48954084 -154.56030273 208.81420898 C-151.70254527 204.71433705 -148.81058321 200.64886875 -145.8359375 196.6328125 C-145.27084473 195.86090576 -144.70575195 195.08899902 -144.12353516 194.29370117 C-143.05625595 192.8393152 -141.97709031 191.39355097 -140.88427734 189.95825195 C-138.16551588 186.30987208 -138.16551588 186.30987208 -137.30859375 181.9609375 C-138.86202984 178.5039952 -140.90532973 175.49508418 -143.10546875 172.4296875 C-143.59168701 171.7377832 -144.07790527 171.04587891 -144.57885742 170.33300781 C-145.63348181 168.83337811 -146.69164539 167.3362325 -147.75292969 165.84130859 C-150.01432032 162.65082463 -152.25047872 159.44296552 -154.48852539 156.23608398 C-156.24410742 153.72266136 -158.00432179 151.21254109 -159.765625 148.703125 C-162.30167331 145.08844839 -164.82926474 141.4680346 -167.3515625 137.84375 C-167.99053467 136.9269043 -168.62950684 136.01005859 -169.2878418 135.06542969 C-170.51872916 133.2989361 -171.74811769 131.53139697 -172.97583008 129.76269531 C-173.52907959 128.96959961 -174.0823291 128.17650391 -174.65234375 127.359375 C-175.13928711 126.65925293 -175.62623047 125.95913086 -176.12792969 125.23779297 C-177.44233737 123.36887858 -177.44233737 123.36887858 -179.41796875 121.4921875 C-182.5302407 121.4921875 -185.35949027 121.94845799 -188.41796875 122.4921875 Z M-82.41796875 134.4921875 C-83.99806436 136.36166337 -83.99806436 136.36166337 -85.62109375 138.8203125 C-86.2653833 139.75641357 -86.90967285 140.69251465 -87.57348633 141.65698242 C-88.26466553 142.6751001 -88.95584473 143.69321777 -89.66796875 144.7421875 C-91.11424895 146.84788596 -92.56087034 148.95335011 -94.0078125 151.05859375 C-95.10778564 152.66565186 -95.10778564 152.66565186 -96.22998047 154.30517578 C-99.53380635 159.11751042 -102.88003673 163.89973782 -106.23046875 168.6796875 C-106.81022461 169.50952148 -107.38998047 170.33935547 -107.98730469 171.19433594 C-108.52774414 171.96680664 -109.06818359 172.73927734 -109.625 173.53515625 C-110.32846558 174.54098755 -110.32846558 174.54098755 -111.04614258 175.56713867 C-112.02664804 176.94305708 -113.05931248 178.28239492 -114.12402344 179.59423828 C-114.55102539 180.22056152 -114.97802734 180.84688477 -115.41796875 181.4921875 C-114.42166644 186.08753536 -111.27858605 189.62739757 -108.48046875 193.3046875 C-103.8004277 199.55650705 -99.32035292 205.91776941 -94.94750977 212.38793945 C-93.22182676 214.9295164 -91.59594518 217.31421107 -89.41796875 219.4921875 C-86.73983476 219.51426238 -86.73983476 219.51426238 -83.79296875 219.1171875 C-82.79007813 219.00632812 -81.7871875 218.89546875 -80.75390625 218.78125 C-79.98304688 218.68585938 -79.2121875 218.59046875 -78.41796875 218.4921875 C-75.93642833 208.89669138 -73.45877055 199.30020205 -70.98609161 189.70241833 C-69.83785826 185.24602038 -68.68828043 180.78997825 -67.53564453 176.3347168 C-66.42374681 172.03671701 -65.31536184 167.73782553 -64.20942688 163.43828773 C-63.78645827 161.79648773 -63.36221586 160.15501536 -62.93669128 158.51387596 C-62.34180826 156.21867733 -61.75142765 153.92236515 -61.16210938 151.62573242 C-60.98444534 150.9445636 -60.80678131 150.26339478 -60.62373352 149.56158447 C-59.91355416 146.77730289 -59.41796875 144.38067771 -59.41796875 141.4921875 C-62.87467607 140.32066372 -66.33358997 139.15579673 -69.79296875 137.9921875 C-70.7778125 137.65832031 -71.76265625 137.32445312 -72.77734375 136.98046875 C-74.18886719 136.50673828 -74.18886719 136.50673828 -75.62890625 136.0234375 C-76.49821777 135.73017578 -77.3675293 135.43691406 -78.26318359 135.13476562 C-80.36264174 134.39692962 -80.36264174 134.39692962 -82.41796875 134.4921875 Z M-126.41796875 197.4921875 C-127.34456904 198.68817293 -128.22448909 199.92032785 -129.0859375 201.1640625 C-129.9202832 202.36289063 -129.9202832 202.36289063 -130.77148438 203.5859375 C-131.37669922 204.4625 -131.98191406 205.3390625 -132.60546875 206.2421875 C-133.8905372 208.09120686 -135.1756959 209.94016349 -136.4609375 211.7890625 C-137.12013184 212.73974609 -137.77932617 213.69042969 -138.45849609 214.66992188 C-141.43218803 218.95298676 -144.42528517 223.22238225 -147.41796875 227.4921875 C-148.58474486 229.15877755 -149.75141111 230.82544452 -150.91796875 232.4921875 C-168.41796875 257.4921875 -168.41796875 257.4921875 -185.91796875 282.4921875 C-186.49635498 283.31847656 -187.07474121 284.14476562 -187.6706543 284.99609375 C-188.82828162 286.64980085 -189.98599536 288.30344746 -191.14379883 289.95703125 C-194.1995073 294.32146721 -197.25336548 298.68718346 -200.3046875 303.0546875 C-201.25891602 304.41980469 -201.25891602 304.41980469 -202.23242188 305.8125 C-203.45172533 307.55690494 -204.67050281 309.30167769 -205.88867188 311.046875 C-206.71334961 312.22636719 -206.71334961 312.22636719 -207.5546875 313.4296875 C-208.27724731 314.46416016 -208.27724731 314.46416016 -209.0144043 315.51953125 C-210.44941418 317.53638285 -211.92457246 319.51828798 -213.41796875 321.4921875 C-213.08796875 322.1521875 -212.75796875 322.8121875 -212.41796875 323.4921875 C-200.77979578 316.58543955 -189.23748927 309.54109852 -177.77416992 302.34790039 C-170.28274048 297.64960268 -162.76490076 292.99618858 -155.23046875 288.3671875 C-153.05859345 287.03255258 -150.88671844 285.69791717 -148.71484375 284.36328125 C-147.66361328 283.7172998 -146.61238281 283.07131836 -145.52929688 282.40576172 C-138.20111233 277.89867521 -130.88311675 273.37523172 -123.57666016 268.83300781 C-122.21021874 267.98427492 -120.84282356 267.13707399 -119.47412109 266.29199219 C-117.86919804 265.30085998 -116.26835385 264.30313058 -114.66796875 263.3046875 C-113.848125 262.79550781 -113.02828125 262.28632813 -112.18359375 261.76171875 C-110.27747765 260.59880302 -110.27747765 260.59880302 -109.41796875 258.4921875 C-109.44092589 256.70570434 -109.46922161 254.91901202 -109.53369141 253.13354492 C-109.83991673 243.99782275 -108.57793365 237.23213484 -103.41796875 229.4921875 C-104.08441406 228.5228125 -104.75085938 227.5534375 -105.4375 226.5546875 C-105.87787598 225.91402344 -106.31825195 225.27335937 -106.77197266 224.61328125 C-107.75167471 223.18849862 -108.73182462 221.76402385 -109.71240234 220.33984375 C-112.33963071 216.52268974 -114.95888353 212.70049325 -117.5625 208.8671875 C-118.31213013 207.76697266 -118.31213013 207.76697266 -119.0769043 206.64453125 C-120.04592812 205.22189777 -121.01228753 203.79744537 -121.97583008 202.37109375 C-123.0977768 200.72714306 -124.25422882 199.10682297 -125.41796875 197.4921875 C-125.74796875 197.4921875 -126.07796875 197.4921875 -126.41796875 197.4921875 Z " fill="#000000" transform="translate(310.41796875,29.5078125)"/>
<path d="M0 0 C6.50099074 3.68128391 11.87819747 8.78320492 13.9453125 16.1015625 C15.20707075 24.10471483 13.59669188 30.49525555 8.9453125 37.1015625 C3.91065533 42.78925052 -0.7880834 45.55674139 -8.43359375 46.34765625 C-14.52250383 46.65442577 -19.13269152 45.79305949 -24.0546875 42.1015625 C-29.65347635 36.87007009 -33.27675678 32.30960395 -34.42578125 24.6171875 C-35.13448203 19.04866883 -35.13448203 19.04866883 -38.6796875 14.9765625 C-39.8553125 14.5434375 -39.8553125 14.5434375 -41.0546875 14.1015625 C-40.7246875 12.1215625 -40.3946875 10.1415625 -40.0546875 8.1015625 C-38.8584375 8.1840625 -37.6621875 8.2665625 -36.4296875 8.3515625 C-31.89590465 8.34359452 -29.6446875 6.92773271 -26.0546875 4.1015625 C-24.83100937 3.19824645 -23.60170769 2.30250381 -22.3671875 1.4140625 C-21.52607422 0.78951172 -21.52607422 0.78951172 -20.66796875 0.15234375 C-14.79972955 -3.66982658 -6.16919102 -2.67248356 0 0 Z " fill="#E0984F" transform="translate(298.0546875,41.8984375)"/>
<path d="M0 0 C5.66416739 2.96895019 9.86022993 8.07053957 12.4375 13.875 C14.35330855 20.29859338 13.82971077 26.26640467 11.1015625 32.3515625 C7.64803049 38.47816731 3.20844843 42.77825924 -3.2734375 45.5390625 C-10.27944672 46.62620186 -16.59963363 47.19066593 -22.9453125 43.56640625 C-28.4059855 39.4709015 -33.79216198 34.0157845 -34.8984375 27.1015625 C-35.58355116 19.94101969 -35.38139459 13.95563678 -30.8984375 8.1015625 C-21.88974004 -1.36093128 -12.629034 -4.77493512 0 0 Z " fill="#F6C449" transform="translate(458.8984375,425.8984375)"/>
<path d="M0 0 C5.66786803 2.97088994 9.84980113 8.07083467 12.44140625 13.87109375 C14.45961234 20.6900031 13.76574213 27.64532535 10.5625 33.9609375 C6.99748523 39.18454203 2.4469253 43.07813146 -3.3359375 45.6015625 C-11.34594053 46.72577345 -18.16515126 47.15152718 -24.8984375 42.1015625 C-31.53288654 35.90235214 -34.84647204 30.86864646 -35.2734375 21.7265625 C-35.10055824 15.00246918 -33.44358783 10.77492003 -28.8046875 5.90234375 C-20.11609752 -2.16356395 -11.3184251 -4.27940454 0 0 Z " fill="#7EDE9D" transform="translate(74.8984375,361.8984375)"/>
<path d="M0 0 C5.67476113 1.96434039 9.31400331 5.62800662 12 11 C12.54360446 15.95482094 12.56437074 19.87125852 10.3125 24.375 C6.72054254 28.45235712 3.52833982 31.59004052 -2.05078125 32.23828125 C-7.58896758 32.42001793 -10.64755155 31.74513006 -15 28 C-19.3022759 23.23261319 -20.36282503 19.56252705 -20.28125 13.28125 C-19.69180611 8.50020514 -16.85179203 5.75038822 -13.375 2.6875 C-8.92314854 -0.47565762 -5.3540278 -0.48837416 0 0 Z " fill="#7ED0E8" transform="translate(124,104)"/>
<path d="M0 0 C5.67476113 1.96434039 9.31400331 5.62800662 12 11 C12.59057744 16.67862925 12.29370905 21.16922672 9 26 C4.99653611 30.03627917 1.41408246 32.12458106 -4.3125 32.3125 C-8.94226662 32.25237316 -11.4369151 31.06591027 -15 28 C-19.3022759 23.23261319 -20.36282503 19.56252705 -20.28125 13.28125 C-19.69180611 8.50020514 -16.85179203 5.75038822 -13.375 2.6875 C-8.92314854 -0.47565762 -5.3540278 -0.48837416 0 0 Z " fill="#DD4E4E" transform="translate(236,264)"/>
<path d="M0 0 C5.67476113 1.96434039 9.31400331 5.62800662 12 11 C12.59057744 16.67862925 12.29370905 21.16922672 9 26 C4.99653611 30.03627917 1.41408246 32.12458106 -4.3125 32.3125 C-8.94226662 32.25237316 -11.4369151 31.06591027 -15 28 C-19.3022759 23.23261319 -20.36282503 19.56252705 -20.28125 13.28125 C-19.69180611 8.50020514 -16.85179203 5.75038822 -13.375 2.6875 C-8.92314854 -0.47565762 -5.3540278 -0.48837416 0 0 Z " fill="#487F99" transform="translate(396,192)"/>
<path d="M0 0 C2.875 1.4375 2.875 1.4375 5 4 C5.90705593 8.29865635 5.72920717 11.75427109 3.5 15.5625 C-0.0502437 17.60389013 -3.00285328 17.77813307 -7 17 C-9.5 15.5625 -9.5 15.5625 -11 13 C-11.60303852 9.8699429 -11.65919094 7.12399182 -11 4 C-7.77123438 0.10648852 -4.96361941 -0.8272699 0 0 Z " fill="#000000" transform="translate(155,390)"/>
</svg>
